<?xml version="1.0" standalone="no"?><!DOCTYPE svg PUBLIC "-//W3C//DTD SVG 1.1//EN" "http://www.w3.org/Graphics/SVG/1.1/DTD/svg11.dtd"><svg t="1763088908086" class="icon" viewBox="0 0 1616 1024" version="1.1" xmlns="http://www.w3.org/2000/svg" p-id="12721" width="37.875" height="24" xmlns:xlink="http://www.w3.org/1999/xlink"><path d="M1489.219368 0H127.622737C55.296 0 0 55.511579 0 128v768A128.161684 128.161684 0 0 0 127.622737 1024h1361.596631C1561.546105 1024 1616.842105 968.488421 1616.842105 896V128A128.161684 128.161684 0 0 0 1489.219368 0z" fill="#B2FCE4" p-id="12722"></path><path d="M1188.001684 286.396632L1075.038316 217.734737 962.021053 148.911158c-75.344842-42.900211-171.546947 12.934737-171.546948 103.100631v17.192422c0 8.569263 4.149895 17.138526 12.557474 21.450105l54.433684 30.127158c16.707368 8.569263 33.414737-4.311579 33.414737-21.504v-34.330948c0-17.192421 16.815158-30.073263 33.522526-21.450105l104.55579 60.092632 100.459789 64.458105c16.815158 8.623158 16.815158 30.073263 0 38.642526l-104.555789 60.200421-104.663579 68.71579c-16.761263 8.569263-33.468632-4.311579-33.468632-21.504v-17.138527c0-90.219789-96.256-146.054737-171.600842-103.154526l-112.963368 68.769684-113.017263 68.71579c-75.290947 42.954105-75.290947 158.989474 0 201.943579l113.071157 68.769684 112.909474 68.715789c75.344842 42.954105 171.600842-12.880842 171.600842-103.100631v-17.138526a23.713684 23.713684 0 0 0-12.557473-21.504l-54.37979-30.073264c-16.761263-8.623158-33.522526 4.311579-33.522526 21.450106v34.330947c0 17.192421-16.707368 30.073263-33.414737 21.504l-104.663579-60.146526-104.609684-64.458106a21.180632 21.180632 0 0 1 0-38.588631l104.555789-60.200421 104.771369-60.146527c16.707368-8.623158 33.414737 4.311579 33.414737 21.450106v17.192421c0 90.273684 96.309895 146.054737 171.600842 103.154526l113.017263-68.769684 112.963368-68.71579c79.494737-51.523368 79.494737-163.301053 4.149895-210.566736z" fill="#000000" p-id="12723"></path></svg>