<svg width="300" height="46" viewBox="0 0 300 46" fill="none" xmlns="http://www.w3.org/2000/svg">
<path d="M25 32.6249C25.3125 31.4707 25.7292 30.3499 26.1417 29.2249C27.075 26.7124 27.9958 24.1999 28.925 21.6832C28.9417 21.6416 28.9875 21.6041 29.0167 21.5624C29.2542 21.3041 29.3375 21.5415 29.4083 21.704C29.4917 21.8915 29.475 22.1082 29.475 22.3124V38.3332C29.475 38.6207 29.5042 38.9165 29.2958 39.1582C29.0292 39.3665 28.7583 39.2499 28.5292 39.1166C26.5542 38.0082 25.2375 36.4416 25.05 34.0957C25.0513 34.0452 25.0334 33.9961 25 33.9582V33.6499C25.0859 33.4187 25.0859 33.1644 25 32.9332V32.6249Z" fill="#E24B48"/>
<path d="M65.2585 39.6918C65.1293 39.4876 64.8668 39.6501 64.7168 39.4959C64.8536 39.1114 64.913 38.7035 64.8918 38.2959C64.8835 36.2959 64.8918 34.3084 64.8918 32.3126C64.8918 32.0543 64.8751 31.8001 64.9418 31.5501C65.0293 31.3001 65.1668 31.3751 65.321 31.4918C65.9001 31.9293 65.946 31.9084 66.2251 31.2418C66.4043 30.8043 66.5168 30.3418 66.7251 29.9168C66.8085 29.7459 66.8793 29.4959 67.1626 29.7001C67.3209 30.0235 67.3927 30.3824 67.371 30.7418C67.3793 33.4293 67.3751 36.1168 67.371 38.8084C67.371 39.0418 67.3835 39.2876 67.2085 39.4834C67.0335 39.6418 66.7501 39.4751 66.5918 39.6918H66.2835C66.0165 39.6063 65.7296 39.6063 65.4626 39.6918H65.2543H65.2585Z" fill="#EA7C44"/>
<path d="M192.607 39.9875C192.949 39.425 193.291 39.4375 193.632 39.9875H192.607Z" fill="#736A65"/>
<path d="M65.4629 39.9874C65.7379 39.4332 66.0129 39.4332 66.2837 39.9874H65.4629Z" fill="#F6C09E"/>
<path d="M25 32.9333C25.5542 33.175 25.5542 33.4125 25 33.65V32.9333Z" fill="#F0AB9C"/>
<path d="M30.9576 39.8749C30.9576 39.8208 30.9576 39.7666 30.9492 39.7124C31.0076 39.5666 31.0867 39.5041 31.1784 39.4749C31.3617 39.4458 31.5409 39.4208 31.6784 39.7041C31.6718 39.7581 31.6718 39.8126 31.6784 39.8666H30.9576V39.8749Z" fill="#F9DAD0"/>
<path d="M239.75 39.9834C239.987 39.4126 240.229 39.4418 240.467 39.9834H239.75Z" fill="#3A3531"/>
<path d="M241.084 39.9874C241.292 39.4416 241.496 39.4249 241.701 39.9874H241.084Z" fill="#3C3633"/>
<path d="M147.995 16.4583C148.97 16.4583 149.945 16.4666 150.924 16.45C151.333 16.4416 151.52 16.5833 151.637 16.9916C152.749 20.95 153.883 24.8875 155.012 28.8375C155.02 28.8708 155.012 28.9083 155.033 28.9333C155.116 29.0666 155.074 29.3291 155.291 29.3208C155.466 29.3166 155.474 29.0875 155.516 28.9541C155.941 27.7166 156.349 26.4791 156.766 25.2416C157.687 22.4916 158.62 19.7416 159.529 16.9875C159.654 16.6 159.837 16.4375 160.254 16.4458C162.358 16.4583 164.462 16.4541 166.566 16.4458C166.954 16.4458 167.137 16.575 167.262 16.95C168.574 20.95 169.908 24.9375 171.237 28.925C171.295 29.0916 171.266 29.3541 171.516 29.3375C171.724 29.325 171.691 29.0625 171.733 28.9208C172.849 25.0166 173.949 21.1166 175.054 17.2166C175.27 16.45 175.266 16.45 176.054 16.45H181.287C181.949 16.45 182.079 16.625 181.887 17.2416C179.67 24.3166 177.462 31.3875 175.258 38.4666C175.137 38.8541 174.966 39.0125 174.549 39.0083C172.598 38.9889 170.647 38.9889 168.695 39.0083C168.254 39.0125 168.083 38.8416 167.949 38.4375C166.496 34.1137 165.029 29.7942 163.549 25.4791C163.479 25.2791 163.52 24.9083 163.229 24.925C162.97 24.9416 162.995 25.3 162.924 25.5125C161.477 29.8213 160.041 34.1338 158.616 38.45C158.483 38.8541 158.299 39.0125 157.866 39.0083C155.88 38.9889 153.894 38.9889 151.908 39.0083C151.495 39.0083 151.304 38.875 151.179 38.4791C148.945 31.375 146.691 24.2833 144.449 17.1833C144.274 16.6208 144.408 16.4541 145.02 16.45H147.999L147.995 16.4541V16.4583ZM270.966 39.0041C269.87 39.0041 268.774 38.9916 267.679 39.0125C267.304 39.0208 267.083 38.8916 266.887 38.5875C265.716 36.7916 264.524 35.0041 263.345 33.2125C263.004 32.7041 262.991 32.7041 262.649 33.2291C261.491 34.9958 260.333 36.7625 259.191 38.5375C258.97 38.875 258.741 39.0208 258.324 39.0166C256.27 38.9958 254.22 39.0083 252.162 39.0041C251.945 39.0041 251.691 39.0541 251.579 38.8041C251.47 38.5708 251.612 38.3875 251.745 38.2C254.054 34.8875 256.345 31.5625 258.666 28.2583C258.929 27.8833 258.916 27.6291 258.658 27.2708C256.329 23.9916 254.012 20.7 251.699 17.4125C251.658 17.3583 251.616 17.3041 251.583 17.2458C251.47 17.0791 251.333 16.9208 251.445 16.6916C251.57 16.4416 251.795 16.4583 252.02 16.4583C253.904 16.4583 255.791 16.5416 257.666 16.4291C258.854 16.3583 259.562 16.7083 260.154 17.7541C260.999 19.2458 262.024 20.6375 262.974 22.0708C263.204 22.425 263.441 22.4166 263.683 22.0458C264.779 20.3416 265.883 18.6416 266.966 16.9291C267.179 16.5958 267.412 16.4458 267.833 16.45C269.887 16.4708 271.941 16.4583 273.995 16.4625C274.237 16.4625 274.516 16.3791 274.679 16.6708C274.845 16.975 274.612 17.1541 274.47 17.35C272.179 20.575 269.887 23.7958 267.583 27.0041C267.32 27.3666 267.308 27.6125 267.574 27.9833C269.966 31.3458 272.337 34.7208 274.716 38.0875C274.779 38.1708 274.841 38.2541 274.891 38.3375C275.12 38.7333 274.983 39.0041 274.52 39.0041C273.341 39.0125 272.158 39.0041 270.979 39.0041H270.966ZM216.433 22.5875V38.2541C216.433 38.7541 216.17 39.0041 215.654 39.0041C213.804 39.0041 211.958 38.9916 210.112 39.0125C209.62 39.0166 209.445 38.8541 209.445 38.3583C209.458 27.8458 209.458 17.3375 209.445 6.82495C209.445 6.36662 209.604 6.19995 210.079 6.19995C211.995 6.22078 213.912 6.22078 215.829 6.19995C216.308 6.19995 216.445 6.35412 216.441 6.82495C216.429 12.0791 216.433 17.3333 216.433 22.5916V22.5833V22.5875ZM226.679 22.5875V38.2541C226.679 38.975 226.645 39.0041 225.924 39.0041C224.058 39.0041 222.195 38.9916 220.329 39.0125C219.829 39.0166 219.679 38.8333 219.683 38.3541C219.691 27.8625 219.691 17.3666 219.691 6.87495C219.691 6.24995 219.733 6.20829 220.358 6.20829H226.004C226.629 6.20829 226.679 6.25829 226.679 6.87495V22.5958V22.5916V22.5875ZM134.816 19.2C135.845 17.6125 137.329 16.7833 139.116 16.4041C140.095 16.1958 141.079 16.1958 142.07 16.3541C142.416 16.4083 142.566 16.5916 142.566 16.9416L142.562 22.675C142.562 23.1791 142.366 23.2666 141.695 23.175C140.62 23.0291 139.545 23.0125 138.504 23.3583C136.495 24.0208 135.554 25.5416 135.191 27.5125C135.079 28.1375 135.066 28.7666 135.066 29.3958V38.3041C135.066 38.9583 135.024 39.0041 134.37 39.0041C132.487 39.0041 130.608 38.9916 128.724 39.0125C128.224 39.0166 128.074 38.8375 128.074 38.3583C128.083 31.275 128.083 24.1958 128.074 17.1125C128.074 16.6333 128.229 16.4458 128.729 16.4458C130.545 16.4666 132.354 16.4666 134.17 16.4458C134.662 16.4458 134.845 16.6125 134.824 17.1C134.795 17.8 134.816 18.4958 134.816 19.1958V19.2ZM117.737 27.7C117.737 24.1708 117.745 20.6375 117.729 17.1041C117.729 16.6208 117.879 16.4375 118.374 16.4416C120.279 16.4625 122.174 16.4541 124.074 16.4416C124.524 16.4416 124.72 16.5916 124.72 17.0666C124.712 24.1805 124.712 31.2944 124.72 38.4083C124.72 38.8583 124.537 39.0041 124.104 39C122.204 38.9875 120.308 39 118.408 39C117.762 39 117.741 38.9708 117.741 38.3416V27.6916V27.7H117.737Z" fill="#090808"/>
<path d="M31.6785 39.6L31.1619 39.5708C30.9702 39.3791 30.9952 39.1291 30.9952 38.8916L30.991 16.85C30.991 16.65 31.066 16.4458 30.9785 16.2458L33.1202 10.5083C33.3493 10.55 33.341 10.7416 33.3618 10.9C33.391 11.1208 33.3785 11.3416 33.3785 11.5666C33.3785 17.1916 33.3785 22.8166 33.3702 28.4416C33.3702 28.9833 33.4952 29.5166 33.416 30.0625C33.316 30.3166 33.1869 30.5625 33.1327 30.8375C33.0952 31.0333 33.0743 31.2708 33.3118 31.4041C33.4118 31.5166 33.4035 31.6541 33.4035 31.7916C33.3565 34.1539 33.3565 36.5169 33.4035 38.8791C33.4035 39.0166 33.4118 39.1541 33.3118 39.2666C32.7868 39.4625 32.2368 39.5583 31.6743 39.5958V39.6H31.6785Z" fill="#E25147"/>
<path d="M121.171 5.5625C123.446 5.5625 125.321 7.39583 125.312 9.61667C125.292 10.7024 124.845 11.7364 124.068 12.4957C123.292 13.2549 122.248 13.6785 121.162 13.675C120.094 13.6652 119.073 13.236 118.318 12.4799C117.564 11.7238 117.137 10.7015 117.129 9.63333C117.125 9.10013 117.227 8.57143 117.428 8.0777C117.63 7.58397 117.927 7.13497 118.302 6.75657C118.678 6.37817 119.125 6.07786 119.617 5.87292C120.109 5.66799 120.637 5.56249 121.171 5.5625Z" fill="#090808"/>
<path d="M68.4425 17.3668C69.2036 17.1162 70.0131 17.0491 70.805 17.1709C71.0425 17.4501 70.9717 17.7876 70.9717 18.1043V36.4668C70.9717 36.8168 71.08 37.1793 70.905 37.5251C70.2842 38.2251 69.53 38.7334 68.6508 39.0667C68.4258 38.8209 68.4925 38.5168 68.4842 38.2334C68.4842 34.7209 68.5008 31.2043 68.48 27.6918C68.455 24.7084 68.505 21.7334 68.4925 18.7459C68.4925 18.2876 68.4008 17.8293 68.4425 17.3709V17.3668Z" fill="#EB8043"/>
<path d="M57.6491 33.6541L53.7324 28.9541C53.7908 28.5125 53.7949 28.0708 53.7949 27.625V19.0291C53.7949 18.7458 53.7324 18.4416 53.9616 18.1958C54.8366 19.075 55.5699 20.0833 56.3866 21.0166C56.4741 21.1166 56.5783 21.2125 56.6449 21.3333C56.9116 21.8041 57.2616 21.95 57.7574 21.675C57.9949 21.6958 57.9824 21.8916 58.0116 22.05C58.0366 22.2 58.0283 22.3583 58.0283 22.5083V32.85C58.0283 33.0375 58.0408 33.225 57.9908 33.4083C57.9449 33.575 57.8991 33.7583 57.6491 33.6583V33.6541Z" fill="#E86F45"/>
<path d="M70.9 37.5251C70.8257 37.2623 70.7919 36.9897 70.8 36.7167V17.1709C71.6167 17.2167 72.3708 17.4542 73.0625 17.8792C73.1191 18.0045 73.142 18.1424 73.1292 18.2792C73.1125 23.2709 73.1458 28.2584 73.1125 33.2501C73.1125 33.3834 73.1458 33.5251 73.0667 33.6501C72.6292 35.1001 72.0625 36.4751 70.9042 37.5251H70.9Z" fill="#EB8443"/>
<path d="M57.6507 33.6543C57.9007 33.6209 57.8632 33.4292 57.8632 33.2626V22.0417C57.8632 21.9084 57.8881 21.7626 57.759 21.6667C58.6607 21.2432 59.5842 20.8676 60.5257 20.5417C60.7673 20.5626 60.7548 20.7584 60.784 20.9167C60.8132 21.0834 60.8006 21.2542 60.8006 21.4251V36.0334C60.8006 36.2417 60.8173 36.4459 60.7673 36.6459C60.7257 36.8251 60.6882 37.0417 60.409 36.9376L57.6465 33.6584L57.6507 33.6543Z" fill="#E97346"/>
<path d="M53.9628 18.1916V28.3374C53.9628 28.5624 54.0336 28.8291 53.7378 28.9541L50.7169 25.3958C50.5628 25.2166 50.4169 25.0249 50.2669 24.8416C50.2184 24.4882 50.1975 24.1316 50.2044 23.7749C50.2044 20.7958 50.2044 17.8166 50.2128 14.8374C50.2128 14.5458 50.1294 14.2083 50.4711 14.0166C51.6961 15.3583 52.8544 16.7583 53.9711 18.1958H53.9628V18.1916Z" fill="#E76B45"/>
<path d="M30.9837 16.2459C31.2462 16.4084 31.1629 16.6709 31.1629 16.8959V39.5709L30.9546 39.6C30.3129 39.5417 29.6796 39.4792 29.1004 39.1834C29.3462 39.075 29.3171 38.8584 29.3171 38.6542V21.9667C29.3171 21.7792 29.4254 21.4709 29.0254 21.5584L30.9921 16.2417H30.9837V16.2459Z" fill="#E24F48"/>
<path d="M37.4159 19.3125C36.7117 21.3459 35.9742 23.3625 35.1659 25.3584C34.8867 25.1625 34.9075 24.8584 34.9034 24.575C34.8909 23.5084 34.8992 22.4334 34.8992 21.3625V8.2917C34.8992 8.0667 34.9284 7.85003 34.9325 7.6292C35.5742 6.9417 36.3325 6.4292 37.2242 6.1167C37.5534 6.3667 37.4825 6.72503 37.4825 7.05837C37.4909 10.45 37.4825 13.8375 37.4825 17.2292C37.4825 17.9292 37.5075 18.625 37.4159 19.3209V19.3125Z" fill="#E45547"/>
<path d="M34.9289 7.625C35.1539 7.79167 35.0622 8.03333 35.0622 8.24167V24.5083C35.0622 24.8 35.0789 25.0875 35.1664 25.3625C34.6372 26.9542 34.0539 28.5208 33.4206 30.0708C33.2552 29.5717 33.1845 29.046 33.2122 28.5208C33.2206 22.7125 33.2122 16.9083 33.2122 11.1042C33.2122 10.9083 33.2831 10.6917 33.1289 10.5167C33.4747 9.4 34.0539 8.425 34.9289 7.62917V7.625Z" fill="#E25347"/>
<path d="M73.0628 33.65C72.9378 33.15 72.9586 32.6375 72.9586 32.1292V18.5792C72.9586 18.3417 72.9253 18.1 73.0628 17.8792C74.8961 18.8708 75.9753 20.4083 76.3545 22.4417C76.5628 23.575 76.4128 24.6833 76.017 25.7583C75.0711 28.35 74.1086 30.9333 73.1503 33.525C73.1295 33.5708 73.092 33.6083 73.0628 33.65Z" fill="#EC8744"/>
<path d="M60.4126 36.9333C60.7543 36.8625 60.6293 36.5917 60.6293 36.3958C60.6376 32.9875 60.6335 29.5834 60.6335 26.1792V21.0667C60.6335 20.8875 60.7043 20.6833 60.5251 20.5375C61.2585 20.175 62.021 19.8875 62.7918 19.6208C63.0126 19.8625 62.9501 20.1625 62.9501 20.4458C62.971 22.6708 62.9251 24.8958 62.9793 27.125C62.971 27.2708 62.896 27.4 62.7626 27.4333C62.2376 27.5583 62.221 27.8792 62.4168 28.2875C62.4751 30.0625 62.4335 31.8333 62.4418 33.6083C62.4501 34.9417 62.4543 36.2709 62.4335 37.6C62.4293 37.9167 62.5001 38.3042 62.071 38.4625C61.4194 38.0685 60.8528 37.5487 60.4043 36.9333H60.4126Z" fill="#E97645"/>
<path d="M50.4671 14.0083C50.3296 14.2125 50.3671 14.4333 50.3671 14.6583V24.2583C50.3671 24.4583 50.4421 24.6708 50.2629 24.8416L47.5796 21.6C47.5222 21.4584 47.4939 21.3068 47.4962 21.1541C47.5671 17.9625 47.5129 14.7625 47.5337 11.5708C47.5337 11.2708 47.4629 10.9541 47.7004 10.6958C48.6629 11.7666 49.5921 12.8625 50.4629 14.0166V14.0083H50.4671Z" fill="#E66645"/>
<path d="M68.4425 17.3667C68.6466 17.6084 68.6508 17.8917 68.6508 18.1834V39.0667C68.2051 39.3065 67.7139 39.4499 67.2091 39.4875V30.7084C67.2091 30.3375 67.1966 29.9709 66.9758 29.65C66.8925 29.525 66.9175 29.3875 66.9716 29.2667C67.4008 28.1834 67.7216 27.0584 68.2133 26.0042C68.2966 25.8459 68.38 25.6917 68.2008 25.5417C67.9758 25.375 67.755 25.4334 67.5258 25.5292C67.3425 25.6 67.1633 25.6584 67.0966 25.3834C67.005 24.65 67.055 23.9167 67.055 23.1834C67.0425 21.6542 67.055 20.1209 67.055 18.5875C67.055 18.3125 67.0383 18.0375 67.2133 17.8042C67.6216 17.6542 68.005 17.4459 68.4466 17.3792V17.3667H68.4425Z" fill="#EB7E43"/>
<path d="M47.7036 10.6958L47.6995 20.0375C47.6995 20.5667 47.7411 21.0917 47.5828 21.6042C46.7911 20.7417 46.0453 19.8375 45.3203 18.9167C45.4495 15.6125 45.3411 12.3083 45.3828 9C45.3828 8.7 45.312 8.37917 45.5536 8.125C46.3078 8.95417 47.0328 9.80833 47.7078 10.7H47.7036V10.6958Z" fill="#E66346"/>
<path d="M37.4163 19.3124C37.2496 19.1374 37.3329 18.9208 37.3329 18.7249C37.3246 14.7833 37.3246 10.8499 37.3329 6.90827C37.3375 6.63629 37.301 6.36518 37.2246 6.1041C37.8996 5.77077 38.6204 5.6041 39.3704 5.5791C39.7329 5.69577 39.6371 6.01244 39.6413 6.25827C39.6538 8.0041 39.6538 9.74994 39.6454 11.4958C39.6454 12.1583 39.6913 12.8166 39.5871 13.4708C38.9112 15.4321 38.1888 17.3771 37.4204 19.3041V19.3124H37.4163Z" fill="#E45847"/>
<path d="M62.895 27.2751C62.8138 27.0322 62.7771 26.7768 62.7866 26.5209V19.6209C63.6866 19.1917 64.6116 18.8167 65.5533 18.4959C65.795 18.3959 65.845 18.5751 65.8866 18.7376C65.9366 18.9001 65.9283 19.0751 65.9283 19.2417L65.9325 25.9126C65.9325 26.1126 65.8075 26.2167 65.6408 26.2917C64.8533 26.6667 64.0283 26.9584 63.2241 27.2917C63.12 27.3417 62.995 27.3667 62.8908 27.2709L62.895 27.2751Z" fill="#E97945"/>
<path d="M43.3492 16.5667L41.0117 13.7875C41.1284 11.2667 41.0367 8.74585 41.0617 6.22085C41.0617 6.02085 41.0242 5.81252 41.1284 5.62085C42.0076 5.73752 42.8451 6.00419 43.5992 6.49585C43.7659 6.71669 43.7534 6.97085 43.7534 7.22502C43.7534 10.0125 43.7617 12.8042 43.7451 15.5917C43.7451 15.9459 43.8617 16.3958 43.3492 16.5625V16.5667Z" fill="#E45E46"/>
<path d="M43.3496 16.5667C43.5996 16.3292 43.5913 16.025 43.5913 15.7167C43.5913 12.6459 43.5913 9.5667 43.5996 6.4917C44.3788 6.88753 45.0288 7.4292 45.5496 8.12503L45.5413 18.1667C45.5413 18.4375 45.5829 18.7209 45.3204 18.9125C44.6659 18.1297 44.0104 17.3478 43.3538 16.5667H43.3496Z" fill="#E56046"/>
<path d="M41.1255 5.62093C41.2297 5.76676 41.2255 5.93759 41.2255 6.10843V13.1418C41.2255 13.3793 41.2255 13.6209 41.013 13.7876C40.8214 13.7209 40.7714 13.5168 40.6589 13.3793C40.1505 12.7876 39.938 12.7959 39.5839 13.4751C39.5031 13.1992 39.4666 12.9124 39.4755 12.6251V6.15843C39.4755 5.96676 39.5547 5.74593 39.3672 5.58343C39.9589 5.42093 40.5422 5.52926 41.1297 5.61259V5.62093H41.1255Z" fill="#E45B47"/>
<path d="M65.8753 26.0542C65.7336 25.8584 65.7711 25.6292 65.7711 25.4126V18.9792C65.7711 18.8001 65.8753 18.5501 65.5586 18.4876L67.2086 17.7917V25.5168C67.0445 25.7052 66.8382 25.8521 66.6064 25.9455C66.3747 26.039 66.1242 26.0762 65.8753 26.0542Z" fill="#EA7C44"/>
<path d="M205.491 16.45C203.591 16.4584 201.696 16.4542 199.796 16.45C199.433 16.45 199.262 16.6 199.275 16.9792C199.296 17.5792 199.279 18.1875 199.279 18.9375C199.055 18.5485 198.79 18.1852 198.487 17.8542C197.154 16.4792 195.479 15.8917 193.612 15.8125C189.604 15.6417 186.3 17.0334 184.029 20.3959C181.9 23.5459 181.454 27.0834 182.262 30.7209C183.287 35.3209 186.058 38.3375 190.775 39.4125C191.279 39.5292 191.808 39.4792 192.296 39.6917H192.604C192.94 39.6063 193.293 39.6063 193.629 39.6917H193.837C193.862 39.575 193.95 39.5875 194.033 39.5875C194.671 39.5792 195.279 39.4125 195.875 39.2C197.325 38.6917 198.433 37.7709 199.275 36.325C199.275 37.1084 199.304 37.7459 199.266 38.3834C199.246 38.8542 199.421 39.0125 199.891 39.0084C201.704 38.9917 203.516 39 205.329 39C205.987 39 206.029 38.9542 206.029 38.3042V17.1167C206.029 16.7292 205.966 16.45 205.487 16.45H205.491ZM198.725 30.5542C197.862 32.6709 195.933 33.8125 193.646 33.65C191.579 33.5042 189.771 31.8875 189.216 29.7084C189.046 29.0871 188.967 28.4441 188.983 27.8C188.962 26.175 189.258 24.7917 190.187 23.6209C192.437 20.775 197.166 21.3459 198.646 24.6542C199.512 26.5875 199.521 28.5917 198.725 30.5542ZM251.35 24.2875C250.725 21.2167 249.196 18.7584 246.391 17.2084C244.747 16.3298 242.918 15.8515 241.054 15.8125C236.783 15.6417 233.346 17.2292 230.929 20.7625C229.071 23.4709 228.608 26.5209 229.062 29.7375C229.737 34.5292 232.875 38.0459 237.583 39.3042C238.129 39.45 238.716 39.4292 239.233 39.6917H239.75C239.981 39.6069 240.235 39.6069 240.466 39.6917H241.083C241.291 39.6042 241.496 39.6042 241.7 39.6917H242.112C242.129 39.6084 242.183 39.5917 242.258 39.5875C243.687 39.4959 245.041 39.1 246.308 38.45C247.484 37.8764 248.525 37.0616 249.365 36.0587C250.205 35.0559 250.825 33.8873 251.183 32.6292C251.358 32.0459 251.225 31.8792 250.621 31.8792C248.854 31.8792 247.096 31.8792 245.329 31.8709C245.195 31.8647 245.062 31.892 244.941 31.9502C244.82 32.0084 244.716 32.0956 244.637 32.2042C244.011 32.9818 243.122 33.5034 242.137 33.6709C241.458 33.8084 240.775 33.7959 240.096 33.7417C238.087 33.5834 236.283 32.0917 235.829 30.2375C235.712 29.7584 235.904 29.5167 236.404 29.5167H250.987C251.25 29.5167 251.529 29.6 251.562 29.1584C251.722 27.5285 251.649 25.8843 251.346 24.275V24.2875H251.35ZM244.421 25.0209C243.046 25.0125 241.679 25.0209 240.312 25.0209C238.946 25.0209 237.646 25.0084 236.312 25.0209C235.954 25.0209 235.821 24.9625 235.925 24.5625C236.375 22.8667 237.458 21.8084 239.141 21.4125C240.658 21.0542 242.137 21.2417 243.425 22.2042C244.208 22.7834 244.629 23.5959 244.821 24.5584C244.904 24.9709 244.771 25.025 244.425 25.0209H244.421Z" fill="#090808"/>
<path d="M62.0742 38.4583C62.2826 38.2042 62.2825 37.9 62.2825 37.5917V28.1C62.4659 28.075 62.5742 28.1958 62.6701 28.3083C63.3867 29.1833 64.1242 30.0333 64.8367 30.9083C64.945 31.0458 65.1159 31.175 65.0492 31.3958V38.7958C65.0492 39.075 65.1159 39.4 64.7159 39.4958C63.7611 39.3844 62.8512 39.0284 62.0742 38.4625V38.4583Z" fill="#E97845"/>
<path d="M44.413 34.7751C43.3714 35.2626 42.2964 35.6792 41.2214 36.0834C40.963 35.9542 40.9672 35.7001 40.9672 35.4626C40.9589 33.3126 40.9589 31.1542 40.9672 29.0001C40.9672 28.7917 40.9797 28.5876 41.1297 28.4251C42.1464 27.8834 43.2005 27.6751 44.313 28.1251C44.5589 28.2667 44.5714 28.5126 44.5755 28.7501C44.5839 30.5667 44.5839 32.3834 44.5755 34.1959C44.5755 34.4042 44.563 34.6084 44.4089 34.7709V34.7751H44.413Z" fill="#E45F46"/>
<path d="M39.479 36.7958L37.2207 37.7124C37.054 37.5583 37.0624 37.3416 37.0624 37.1416C37.0374 34.8791 37.0874 32.6124 37.0332 30.3499C37.0332 30.2458 37.0499 30.1458 37.1165 30.0583C37.8499 29.6999 38.5999 29.3916 39.3749 29.1416C39.6665 29.1916 39.6332 29.4333 39.6332 29.6208C39.6499 31.8499 39.6499 34.0791 39.6374 36.3166C39.6374 36.4916 39.5874 36.6499 39.479 36.7916V36.7958Z" fill="#E45847"/>
<path d="M37.1175 30.0625C37.1923 30.3239 37.2288 30.5948 37.2258 30.8667C37.2174 33.1542 37.2258 35.4333 37.2258 37.7208L34.9633 38.6375C34.7966 38.4833 34.8049 38.2708 34.8049 38.0708C34.7966 35.8292 34.8049 33.5833 34.8008 31.3417C34.8008 31.2208 34.8258 31.1042 34.8549 30.9917C35.5925 30.6333 36.3466 30.325 37.1216 30.0667L37.1175 30.0625Z" fill="#E35547"/>
<path d="M34.8503 30.9834C35.0378 31.1459 34.9586 31.3626 34.9586 31.5542V38.6334C34.417 38.8501 33.8961 39.1376 33.3128 39.2709C33.1336 38.5167 33.2211 37.7542 33.217 36.9917C33.2045 35.6001 33.2128 34.2084 33.217 32.8167C33.217 32.3459 33.1878 31.8709 33.317 31.4042C33.892 31.4876 34.3295 31.0709 34.8503 30.9792V30.9834Z" fill="#E25347"/>
<path d="M39.4789 36.7959V29.6709C39.4789 29.4917 39.5497 29.2959 39.3789 29.1459C39.9414 28.8584 40.5289 28.6209 41.1289 28.4292V35.4417C41.1289 35.6625 41.0872 35.8875 41.2247 36.0875L39.4831 36.8V36.7959H39.4789Z" fill="#E45A47"/>
<path d="M44.4125 34.775V28.775C44.4125 28.5542 44.4417 28.3292 44.3125 28.1292C45.7292 28.6417 46.4833 29.6875 46.625 31.1292C46.7667 32.5417 46.1542 33.6625 45 34.4792C44.8208 34.6042 44.6417 34.7458 44.4167 34.775H44.4125Z" fill="#E66146"/>
<path d="M115.446 38.2499L103.85 7.33321C103.717 6.97905 103.508 6.83321 103.125 6.83738C101.908 6.85405 100.696 6.84155 99.4835 6.84155C98.3001 6.84155 97.121 6.86238 95.9418 6.83322C95.4626 6.82072 95.2126 6.97488 95.0376 7.44155C91.1626 17.6915 87.271 27.9332 83.3793 38.1749C83.121 38.8582 83.2126 38.9999 83.9376 38.9999C85.9751 38.9999 88.0085 38.9874 90.046 39.0124C90.5335 39.0165 90.7751 38.8707 90.9335 38.3999C91.5376 36.6207 92.1918 34.8499 92.8085 33.0749C92.9501 32.6665 93.1418 32.4832 93.6043 32.4832C97.3668 32.504 101.133 32.4999 104.896 32.4832C105.354 32.4832 105.563 32.6415 105.708 33.0582C106.342 34.8874 107.008 36.6957 107.642 38.5249C107.767 38.8749 107.942 39.0082 108.308 39.004C110.517 38.9915 112.721 39.004 114.933 38.9957C115.546 38.9957 115.667 38.8207 115.446 38.2457V38.2499ZM102.688 25.9415C101.563 25.929 100.433 25.9415 99.3085 25.9415C98.1835 25.9415 97.0501 25.929 95.9251 25.9415C95.5335 25.9457 95.446 25.8249 95.5793 25.4624L99.121 15.6165C99.1626 15.479 99.1626 15.2749 99.3626 15.2832C99.5168 15.2957 99.5293 15.4749 99.571 15.604C100.725 18.8957 101.875 22.1874 103.042 25.479C103.175 25.854 103.063 25.9499 102.683 25.9457H102.688V25.9415Z" fill="#090808"/>
<path d="M68.4009 25.9666C68.4426 25.7999 68.5551 25.6249 68.3301 25.4666C68.9009 25.6249 68.8426 25.7999 68.4009 25.9666Z" fill="#EB8043"/>
</svg>
