<svg width="160" height="100" viewBox="0 0 160 100" fill="none" xmlns="http://www.w3.org/2000/svg">
<rect width="160" height="100" rx="8" fill="white"/>
<path d="M40 10V49.8751V90H79.9988H120V50.0011V10H80.0144H40Z" fill="white"/>
<path d="M105.733 29.6267L108.293 22.6667H120V10H40V90H120V77.36H108.96L104.88 72.5867L100.64 77.36H69.28V51.9467H58.9333L71.8667 22.6667H84.4532L87.4933 29.3067V22.6667H103.12L105.733 29.6267ZM96.9067 34.24L96.88 31.44L97.9468 34.24L103.147 48.1333H108.32L113.547 34.24L114.56 31.4667V48.1333H120V26.8H110.96L106.853 37.6268L105.76 40.56L104.64 37.6268L100.507 26.8H91.4667V48.1333H96.9067V34.24ZM85.2 48.1333H91.4667L82.08 26.8H74.8L65.36 48.1333H71.5467L73.2 44.0267H83.5467L85.2 48.1333ZM77.3068 34.0268L78.3733 31.36L79.44 34.0268L81.6533 39.4133H75.0933L77.3068 34.0268ZM73.6532 51.9732V73.2267H91.4667V68.6133H79.0933V64.9067H91.2267V60.32H79.0933V56.5867H91.4667V51.9732H73.6532ZM111.28 73.2267H118.347L108.373 62.56L118.347 51.9732H111.387L104.96 58.88L98.56 51.9732H91.4667L101.413 62.64L91.4667 73.2267H98.3467L104.827 66.2933L111.28 73.2267ZM113.973 62.5333L120 68.6667V56.48L113.973 62.5333Z" fill="#006FCF"/>
<path fill-rule="evenodd" clip-rule="evenodd" d="M152 2H8C4.68629 2 2 4.68629 2 8V92C2 95.3137 4.68629 98 8 98H152C155.314 98 158 95.3137 158 92V8C158 4.68629 155.314 2 152 2ZM8 0C3.58172 0 0 3.58172 0 8V92C0 96.4183 3.58172 100 8 100H152C156.418 100 160 96.4183 160 92V8C160 3.58172 156.418 0 152 0H8Z" fill="#DDDDD8"/>
</svg>
