<svg width="160" height="100" viewBox="0 0 160 100" fill="none" xmlns="http://www.w3.org/2000/svg">
<path d="M0 8C0 3.58172 3.58172 0 8 0H152C156.418 0 160 3.58172 160 8V92C160 96.4183 156.418 100 152 100H8C3.58172 100 0 96.4183 0 92V8Z" fill="white"/>
<path fill-rule="evenodd" clip-rule="evenodd" d="M152 2H8C4.68629 2 2 4.68629 2 8V92C2 95.3137 4.68629 98 8 98H152C155.314 98 158 95.3137 158 92V8C158 4.68629 155.314 2 152 2ZM8 0C3.58172 0 0 3.58172 0 8V92C0 96.4183 3.58172 100 8 100H152C156.418 100 160 96.4183 160 92V8C160 3.58172 156.418 0 152 0H8Z" fill="#DDDDD8"/>
<g clip-path="url(#clip0_40129_27272)">
<path d="M38.9485 32.9338C37.4134 34.7504 34.9571 36.1832 32.5009 35.9785C32.1939 33.5223 33.3964 30.9125 34.8036 29.3006C36.3388 27.4328 39.0253 26.1023 41.2001 26C41.456 28.5586 40.4581 31.066 38.9485 32.9338ZM41.1745 36.4646C37.6181 36.26 34.5734 38.4859 32.8847 38.4859C31.1704 38.4859 28.5862 36.567 25.7718 36.6182C22.113 36.6693 18.7101 38.7418 16.8423 42.0424C13.0044 48.6436 15.8444 58.4174 19.5544 63.7904C21.371 66.4514 23.5458 69.3682 26.4114 69.2658C29.1235 69.1635 30.1982 67.5004 33.4732 67.5004C36.7737 67.5004 37.7204 69.2658 40.5861 69.2146C43.554 69.1635 45.4218 66.5537 47.2384 63.8928C49.3109 60.8736 50.1552 57.9312 50.2064 57.7777C50.1552 57.7266 44.4751 55.5518 44.4239 49.0018C44.3728 43.5264 48.9015 40.9166 49.1062 40.7631C46.5476 36.9764 42.5562 36.567 41.1745 36.4646ZM61.72 29.0447V68.9332H67.9118V55.2959H76.4831C84.3124 55.2959 89.8134 49.9229 89.8134 42.1447C89.8134 34.3666 84.4148 29.0447 76.6878 29.0447H61.72ZM67.9118 34.2643H75.0503C80.4234 34.2643 83.4937 37.1299 83.4937 42.1703C83.4937 47.2107 80.4234 50.102 75.0247 50.102H67.9118V34.2643ZM101.122 69.2402C105.011 69.2402 108.619 67.2701 110.257 64.1486H110.384V68.9332H116.116V49.0785C116.116 43.3217 111.51 39.6117 104.423 39.6117C97.8474 39.6117 92.9861 43.3729 92.807 48.5412H98.3847C98.8452 46.085 101.122 44.473 104.244 44.473C108.031 44.473 110.154 46.2385 110.154 49.4879V51.6883L102.427 52.1488C95.2376 52.5838 91.3486 55.5262 91.3486 60.6434C91.3486 65.8117 95.3656 69.2402 101.122 69.2402ZM102.785 64.5068C99.4849 64.5068 97.3868 62.9205 97.3868 60.4898C97.3868 57.9824 99.4081 56.524 103.272 56.2938L110.154 55.8588V58.1104C110.154 61.8459 106.982 64.5068 102.785 64.5068ZM123.766 79.7816C129.804 79.7816 132.644 77.4789 135.126 70.4939L146 39.9955H139.706L132.414 63.5602H132.286L124.994 39.9955H118.521L129.011 69.0355L128.448 70.801C127.501 73.7945 125.966 74.9459 123.229 74.9459C122.743 74.9459 121.796 74.8947 121.412 74.8436V79.6281C121.77 79.7305 123.305 79.7816 123.766 79.7816Z" fill="black"/>
</g>
<defs>
<clipPath id="clip0_40129_27272">
<rect width="131" height="53.7816" fill="white" transform="translate(15 26)"/>
</clipPath>
</defs>
</svg>
