<svg width="160" height="100" viewBox="0 0 160 100" fill="none" xmlns="http://www.w3.org/2000/svg">
<rect width="160" height="100" rx="8" fill="white"/>
<path d="M103.922 34.2422C103.849 33.4336 103.734 32.6348 103.558 31.8418C102.861 28.6914 101.433 25.9102 99.2596 23.5273C96.4412 20.4355 92.9588 18.4785 88.8924 17.543C87.7439 17.2793 86.5779 17.1191 85.4002 17.0762C85.2771 17.0723 85.1463 17.082 85.0389 17H74.9549C74.8279 17.0938 74.6775 17.0742 74.535 17.0781C73.8689 17.0957 73.2068 17.1719 72.5486 17.2715C71.2674 17.4648 70.0174 17.7812 68.7986 18.2246C65.865 19.2969 63.3436 20.9805 61.285 23.3301C58.4295 26.5898 57.0018 30.4316 56.7342 34.7266C56.6775 35.6309 56.6873 36.5391 56.7674 37.4473C56.8396 38.2656 56.951 39.0762 57.1326 39.875C58.0506 43.9062 60.1014 47.2598 63.2205 49.9609C64.9686 51.4746 66.9393 52.6133 69.1131 53.4023C70.7 53.9776 72.3578 54.3344 74.0408 54.4629C74.7225 54.5156 75.408 54.5371 76.0955 54.5312C77.6111 54.5176 79.1287 54.5371 80.6443 54.5254C82.3045 54.5117 83.9647 54.5742 85.6248 54.4805C86.367 54.4395 87.1033 54.3574 87.8338 54.2246C89.8885 53.8535 91.8436 53.1836 93.6814 52.1895C97.6561 50.041 100.662 46.9707 102.531 42.832C103.346 41.0313 103.818 39.1348 103.957 37.166C104.023 36.1934 104.01 35.2168 103.922 34.2422ZM75.6424 52.9844C65.9002 52.9531 58.41 45.0234 58.4021 35.7617C58.3943 26.5312 65.8201 18.5156 75.6346 18.5137C85.1853 18.5117 92.8533 26.1914 92.8572 35.7383C92.8592 45.3477 85.115 52.9492 75.6424 52.9844Z" fill="#04568E"/>
<path d="M79.6014 25.6855C79.535 25.8145 79.5623 25.9336 79.5623 26.0469C79.5603 32.5156 79.5603 38.9844 79.5603 45.4531C79.5603 45.5117 79.5584 45.5684 79.5603 45.627C79.5623 45.6914 79.5467 45.7656 79.6228 45.8066C83.0115 44.5781 86.5818 40.7891 86.4666 35.4863C86.3592 30.6191 83.0447 26.9277 79.6014 25.6855ZM71.6678 25.7246C71.6678 25.7168 71.658 25.709 71.6502 25.7031C71.6424 25.6973 71.6326 25.6934 71.6248 25.6895C67.9998 27.0566 64.6814 30.8672 64.7928 35.9941C64.9021 40.959 68.2166 44.5312 71.6404 45.8008C71.6932 45.7441 71.6873 45.6953 71.6873 45.6465C71.6756 39.0059 71.7088 32.3652 71.6678 25.7246Z" fill="#04568E"/>
<path d="M44.2266 82.3242C44.0918 82.2793 44.002 82.1777 43.9102 82.0762C42.2051 80.1719 40.4981 78.2695 38.791 76.3672C38.7383 76.3086 38.6836 76.2539 38.6309 76.1992C38.5273 76.2305 38.5605 76.3125 38.5605 76.3731C38.5605 77.793 38.5606 79.2129 38.5645 80.6328C38.5645 80.7988 38.5684 80.9648 38.6113 81.1289C38.7012 81.4824 38.8809 81.6387 39.2441 81.6816C39.4062 81.7012 39.5742 81.6738 39.7363 81.7207C39.7734 81.8457 39.7695 81.959 39.7402 82.0938H36.8105C36.7637 81.9727 36.7754 81.8594 36.7949 81.7461C36.8926 81.6621 37.0059 81.6992 37.1094 81.6895C37.4766 81.6562 37.7051 81.4824 37.8203 81.1309C37.9102 80.8574 37.9199 80.5723 37.9219 80.2891C37.9277 78.8301 37.9199 77.3711 37.9258 75.9121C37.9277 75.2441 37.5801 74.9824 37.2324 74.8809C37.1035 74.8438 36.9629 74.8457 36.8301 74.8301C36.7441 74.7207 36.7988 74.6016 36.7852 74.4941C36.8965 74.3965 37.0195 74.4316 37.1328 74.4355C37.6914 74.4551 38.25 74.4746 38.8066 74.4355C39.0137 74.4219 39.1504 74.4941 39.2852 74.6465C40.7246 76.2754 42.1699 77.9004 43.6133 79.5254C43.6816 79.6035 43.7402 79.6934 43.8418 79.75C43.9043 79.6563 43.8809 79.5684 43.8809 79.4844C43.8828 78.2988 43.8828 77.1152 43.8828 75.9297C43.8828 75.7637 43.8809 75.5977 43.8301 75.4356C43.7266 75.0957 43.4863 74.8965 43.1328 74.8555C42.998 74.8398 42.8594 74.8691 42.7324 74.8242C42.6777 74.7012 42.707 74.5859 42.7109 74.4355C43.6875 74.4473 44.6504 74.4805 45.623 74.4238C45.6523 74.5781 45.6543 74.6914 45.6289 74.8066C45.5293 74.877 45.418 74.8457 45.3145 74.8535C44.9336 74.8809 44.7461 75.0195 44.625 75.3809C44.5313 75.6641 44.5195 75.957 44.5195 76.252V79.5723C44.5195 80.1113 44.5234 80.6504 44.5195 81.1875C44.5156 81.5703 44.5508 81.9492 44.584 82.3301C44.4629 82.3242 44.3438 82.3242 44.2266 82.3242ZM99.1875 82.3242C98.9961 82.2422 98.7891 82.2441 98.5879 82.2012C97.0684 81.8809 95.9727 81.0469 95.5273 79.5293C94.8359 77.1758 96.1894 74.8731 98.457 74.3731C99.7891 74.0781 101.057 74.293 102.172 75.1074C103.287 75.9219 103.709 77.0664 103.619 78.4219C103.59 78.8731 103.502 79.3164 103.332 79.7363C102.773 81.1055 101.752 81.9121 100.312 82.209C100.133 82.2461 99.9434 82.2363 99.7754 82.3262C99.5781 82.3242 99.3828 82.3242 99.1875 82.3242ZM102.014 78.3477C102.027 78.0176 101.984 77.6289 101.893 77.248C101.727 76.5488 101.43 75.9219 100.902 75.416C99.959 74.5137 98.0605 74.5918 97.3613 76.0547C97.2637 76.2578 97.1816 76.4668 97.125 76.6855C96.9434 77.377 96.9219 78.0781 97.0234 78.7832C97.123 79.4785 97.3223 80.1406 97.7402 80.7188C98.3418 81.5527 99.1602 81.8496 100.16 81.6563C101.006 81.4922 101.504 80.9395 101.768 80.1504C101.953 79.5859 102.01 79.002 102.014 78.3477ZM111.236 82.3242C111.094 82.2676 111.006 82.1484 110.908 82.041C109.221 80.1602 107.535 78.2793 105.848 76.3984C105.783 76.3262 105.729 76.2422 105.641 76.1914C105.553 76.2285 105.586 76.3086 105.586 76.3691C105.584 77.7598 105.584 79.1504 105.586 80.541C105.586 80.7266 105.592 80.9121 105.633 81.0957C105.721 81.4785 105.904 81.6484 106.297 81.6797C106.441 81.6914 106.588 81.6816 106.729 81.6816C106.818 81.8262 106.783 81.9473 106.777 82.0918H103.857C103.793 81.9746 103.814 81.8535 103.838 81.7324C103.941 81.6641 104.053 81.6953 104.158 81.6856C104.482 81.6563 104.709 81.4941 104.822 81.1895C104.912 80.9492 104.943 80.6953 104.943 80.4395C104.943 78.9023 104.947 77.3633 104.943 75.8262C104.941 75.2402 104.596 74.8867 104.004 74.8418C103.957 74.8379 103.91 74.834 103.852 74.8281C103.803 74.707 103.816 74.5918 103.832 74.4746C103.938 74.3965 104.059 74.4277 104.172 74.4316C104.73 74.4531 105.289 74.4668 105.846 74.4316C106.041 74.4199 106.17 74.4883 106.299 74.6328C107.719 76.2402 109.143 77.8438 110.568 79.4473L110.838 79.7461C110.928 79.6816 110.898 79.6074 110.898 79.5449C110.9 78.3106 110.9 77.0762 110.898 75.8438C110.898 75.7461 110.895 75.6465 110.879 75.5508C110.809 75.125 110.533 74.8809 110.1 74.8477C109.984 74.8379 109.865 74.8633 109.736 74.8106C109.701 74.7051 109.711 74.5918 109.727 74.4805C109.848 74.4453 112.486 74.4336 112.648 74.4648C112.691 74.5137 112.68 74.5742 112.682 74.6328C112.682 74.6914 112.689 74.75 112.633 74.8262C112.543 74.8594 112.424 74.8457 112.311 74.8496C111.975 74.8613 111.762 75.0352 111.658 75.3457C111.566 75.6172 111.539 75.9023 111.539 76.1855C111.535 77.9102 111.535 79.6328 111.539 81.3574C111.541 81.6797 111.572 82.002 111.59 82.3242H111.236ZM75.6738 82.3242C75.5273 82.2734 75.4414 82.1523 75.3438 82.043C73.6699 80.1758 71.9961 78.3086 70.3203 76.4434C70.2422 76.3555 70.1621 76.2695 70.0859 76.1855C69.9824 76.2227 70.0156 76.3047 70.0156 76.3652C70.0137 77.7559 70.0137 79.1465 70.0156 80.5371C70.0156 80.7324 70.0215 80.9277 70.0703 81.1211C70.1602 81.4766 70.334 81.6387 70.6953 81.6777C70.8496 81.6953 71.0059 81.6953 71.1719 81.7031C71.2363 81.8281 71.2148 81.9492 71.1953 82.0918H68.2813C68.2207 81.9707 68.2266 81.8516 68.2695 81.7324C68.375 81.6699 68.4863 81.6953 68.5918 81.6875C68.9316 81.6582 69.1563 81.4785 69.2637 81.1602C69.3555 80.8887 69.3789 80.6055 69.3789 80.3203V75.9414C69.3789 75.2266 69.0781 74.8984 68.3711 74.8418C68.3438 74.8398 68.3164 74.8281 68.2832 74.8203C68.2188 74.709 68.2402 74.5937 68.2578 74.4844C68.3223 74.4062 68.4062 74.4297 68.4805 74.4316C69.0977 74.4492 69.7148 74.4727 70.3301 74.4316C70.5137 74.4199 70.6152 74.5098 70.7246 74.6328C72.1738 76.2676 73.625 77.9004 75.0742 79.5332C75.1387 79.6055 75.2051 79.6758 75.2695 79.7461C75.3652 79.6992 75.332 79.6211 75.332 79.5606C75.334 78.3359 75.334 77.1113 75.334 75.8867C75.334 75.8086 75.3301 75.7305 75.3242 75.6523C75.2773 75.1484 74.9902 74.8711 74.4883 74.8477C74.3906 74.8438 74.2949 74.8398 74.2012 74.834C74.1484 74.6602 74.1484 74.6602 74.1816 74.4258C75.1387 74.4531 76.1016 74.4668 77.0723 74.4258C77.1113 74.5703 77.1133 74.6817 77.082 74.8008C76.9766 74.875 76.8535 74.8438 76.7402 74.8496C76.4043 74.8633 76.1914 75.0352 76.0879 75.3457C76.0059 75.5879 75.9727 75.8418 75.9727 76.0977C75.9707 77.9004 75.9688 79.7031 75.9746 81.5039C75.9746 81.7773 76.0078 82.0508 76.0273 82.3242H75.6738ZM33 74.4473C33.125 74.4004 33.252 74.4297 33.3789 74.4336C34.2988 74.4629 35.2188 74.457 36.1406 74.4336C36.2363 74.4316 36.3359 74.4082 36.4434 74.4629C36.4902 74.5664 36.457 74.6816 36.4648 74.793C36.3398 74.8809 36.207 74.8418 36.0859 74.8496C35.6758 74.8809 35.5156 75.0313 35.5156 75.4336C35.5117 77.3242 35.5117 79.2129 35.5156 81.1035C35.5156 81.5078 35.6738 81.6602 36.0859 81.6856C36.2012 81.6934 36.3164 81.6992 36.4395 81.707C36.4824 81.834 36.4707 81.9473 36.457 82.0527C36.3887 82.1289 36.3047 82.1152 36.2305 82.1113C35.2227 82.0723 34.2148 82.0723 33.2051 82.1113C33.1387 82.1133 33.0703 82.0957 33.002 82.0879V81.6758C33.0996 81.6797 33.1953 81.6914 33.293 81.6895C33.8809 81.6738 34.0059 81.5449 34.0059 80.9492V75.5879C34.0059 75.5098 34.0078 75.4316 34.002 75.3535C33.9785 75.0488 33.8301 74.8887 33.5273 74.8594C33.3535 74.8418 33.1777 74.8281 33.002 74.8594C33 74.7207 33 74.584 33 74.4473ZM127.695 75.6816C127.602 75.748 127.607 75.8672 127.549 75.957C127.279 76.3516 126.762 76.541 126.281 76.4082C125.787 76.2715 125.471 75.8672 125.459 75.3594C125.447 74.8262 125.717 74.4023 126.178 74.2305C126.633 74.0605 127.148 74.1914 127.463 74.543C127.578 74.6719 127.613 74.8359 127.697 74.9766C127.695 75.2109 127.695 75.4453 127.695 75.6816ZM126.59 76.2305C127.088 76.2305 127.498 75.8184 127.502 75.3125C127.508 74.8066 127.102 74.3828 126.607 74.377C126.092 74.3711 125.682 74.7852 125.684 75.3086C125.686 75.8203 126.09 76.2305 126.59 76.2305ZM33.1328 70.0625C33.1094 69.9121 33.1113 69.7617 33.1348 69.5879C33.332 69.5625 33.5234 69.5352 33.7148 69.5117C34.5586 69.4082 34.8867 69.0664 34.9434 68.2227C34.9512 68.0957 34.9551 67.9688 34.9551 67.8418V58.4414C34.9551 58.1777 34.9512 57.9141 34.8945 57.6523C34.7617 57.0234 34.4688 56.7441 33.8281 56.6641C33.6055 56.6367 33.3809 56.6348 33.1406 56.6191C33.0977 56.4648 33.1152 56.3125 33.127 56.1523C33.25 56.0859 33.377 56.1191 33.5 56.125C34.625 56.1777 35.752 56.1582 36.877 56.1367C37.9336 56.1172 38.9922 56.0606 40.0469 56.1719C42.0723 56.3848 43.8633 57.1133 45.2402 58.6641C46.5352 60.123 47.1328 61.8516 46.8984 63.7871C46.5527 66.6406 45.0098 68.5957 42.2734 69.5586C41.2012 69.9356 40.0859 70.0742 38.9551 70.0898C37.5449 70.1094 36.1348 70.0273 34.7246 70.0606C34.293 70.0703 33.8633 70.082 33.4316 70.0879C33.3398 70.0938 33.2402 70.1133 33.1328 70.0625ZM36.957 56.8574C36.8984 56.9785 36.9238 57.0977 36.9238 57.2129C36.9219 60.6699 36.9219 64.1289 36.9219 67.5859C36.9219 67.6934 36.9199 67.8008 36.9258 67.9082C36.9668 68.7676 37.4082 69.2578 38.2578 69.4004C38.8242 69.4941 39.3906 69.4688 39.9551 69.3984C41.8828 69.1543 43.3223 68.2012 44.1035 66.4024C44.9434 64.4707 45.002 62.4805 44.2598 60.5078C43.582 58.7012 42.2695 57.541 40.4121 57.0117C39.4688 56.7422 38.502 56.707 37.5293 56.7949C37.3379 56.8106 37.1387 56.7812 36.957 56.8574ZM116.84 56.1953C116.816 56.0742 116.811 55.9883 116.836 55.9024C116.891 55.8359 116.973 55.8262 117.045 55.8008C117.746 55.5508 118.436 55.2754 119.082 54.9004C119.107 54.8848 119.133 54.8711 119.16 54.8594C119.371 54.7617 119.451 54.8047 119.469 55.0273C119.475 55.1152 119.471 55.2031 119.471 55.291V62.3184C119.6 62.3145 119.652 62.2383 119.717 62.1875C120.107 61.8731 120.518 61.5938 120.959 61.3535C122.539 60.4883 124.344 61.0742 125.285 62.3438C125.891 63.1582 126.178 64.0781 126.176 65.0879C126.174 66.7988 125.555 68.2422 124.246 69.3594C123.244 70.2148 122.061 70.4961 120.764 70.3633C120.094 70.2949 119.461 70.0996 118.861 69.7988C118.691 69.7129 118.561 69.7109 118.412 69.8457C118.291 69.957 118.162 70.0645 118.008 70.1406C117.873 70.082 117.742 70.0215 117.609 69.9219C117.645 69.6367 117.68 69.3457 117.715 69.0566C117.85 67.9668 117.885 66.8711 117.881 65.7734C117.875 63.1484 117.879 60.5234 117.879 57.8965C117.879 57.623 117.875 57.3496 117.834 57.0762C117.775 56.6738 117.568 56.4121 117.178 56.2969C117.068 56.2695 116.957 56.2324 116.84 56.1953ZM124.588 66.0234C124.582 64.9551 124.242 63.998 123.549 63.1719C123.191 62.7461 122.764 62.4102 122.244 62.2012C121.596 61.9414 120.965 61.9707 120.355 62.3242C120.102 62.4727 119.871 62.6563 119.637 62.832C119.504 62.9336 119.467 63.0508 119.469 63.209C119.473 64.7168 119.463 66.2227 119.475 67.7305C119.484 69.1074 120.707 70.0938 122.059 69.8359C122.891 69.6777 123.502 69.2109 123.934 68.5C124.389 67.7422 124.568 66.9102 124.588 66.0234ZM101.512 66.3223C101.65 66.3281 101.789 66.3574 101.93 66.4395C101.828 67.0977 101.725 67.7539 101.623 68.4102C101.588 68.6426 101.549 68.8731 101.518 69.1074C101.496 69.2754 101.42 69.3848 101.258 69.459C100.75 69.6953 100.219 69.8652 99.6777 70.002C98.668 70.2598 97.6484 70.4355 96.6016 70.3867C94.9707 70.3105 93.4531 69.8926 92.1328 68.8926C90.7774 67.8652 89.9727 66.4844 89.6152 64.8399C89.3457 63.6016 89.2949 62.3535 89.6387 61.1172C90.1543 59.2695 91.2988 57.9004 92.9297 56.9297C94.3223 56.0996 95.8399 55.7422 97.4551 55.8262C98.3887 55.875 99.2949 56.0899 100.184 56.3672C100.688 56.5234 101.186 56.6973 101.713 56.8711C101.779 57.8203 101.844 58.7637 101.91 59.7148C101.734 59.7598 101.59 59.7461 101.451 59.7324C101.369 59.6152 101.373 59.4844 101.342 59.3613C100.98 57.8906 100.074 56.9648 98.5957 56.6172C97.2109 56.293 95.8691 56.4238 94.5918 57.0566C93.3438 57.6758 92.4414 58.6426 91.9785 59.9512C91.1504 62.2891 91.2871 64.5781 92.543 66.7441C93.3262 68.0957 94.4629 69.0586 95.9746 69.5293C96.9551 69.834 97.9453 69.8691 98.9121 69.4883C100.254 68.9609 101.043 67.9453 101.414 66.5762C101.439 66.4922 101.436 66.4004 101.512 66.3223ZM56.791 69.6094V70.0996C55.3731 70.0684 53.9668 70.0293 52.5547 70.1055C52.4981 69.9277 52.5176 69.7754 52.5312 69.6172C52.6602 69.543 52.8008 69.5898 52.9336 69.5781C52.9922 69.5723 53.0508 69.5781 53.1094 69.5762C53.666 69.5664 53.832 69.4102 53.8359 68.8574C53.8418 67.5254 53.8379 66.1934 53.8379 64.8613C53.8379 64.4102 53.8281 63.9609 53.8359 63.5098C53.8438 63.0449 53.6309 62.7266 53.2207 62.5293C53.0547 62.4492 52.8848 62.3711 52.7109 62.291C52.6777 62.1641 52.6797 62.041 52.7129 61.9023C53.6016 61.6113 54.4902 61.3145 55.3867 60.9219C55.5039 61.4277 55.4023 61.9063 55.459 62.3731C55.5723 62.4004 55.6289 62.3164 55.6953 62.2695C56.0645 62.0117 56.4355 61.7559 56.8281 61.5352C57.3984 61.2148 58.0039 61.0039 58.6602 60.9512C59.0371 60.9219 59.4043 60.957 59.7617 61.0742C60.3047 61.252 60.6797 61.6211 60.9141 62.1367C61.1191 62.5898 61.2031 63.0723 61.207 63.5645C61.2148 64.7402 61.2129 65.916 61.2148 67.0918C61.2148 67.6895 61.2129 68.2871 61.2168 68.8848C61.2207 69.3711 61.4004 69.5547 61.8926 69.5742C62.1055 69.582 62.3203 69.5762 62.5469 69.5762C62.5898 69.75 62.5762 69.9043 62.5605 70.0996C61.1523 70.0742 59.7461 70.0273 58.3398 70.1094C58.2637 69.9356 58.2988 69.7813 58.3008 69.6211C58.459 69.541 58.627 69.582 58.7891 69.5801C59.4688 69.5703 59.6152 69.4277 59.6172 68.7461C59.6191 67.1289 59.6191 65.5137 59.6152 63.8965C59.6152 63.6816 59.6035 63.4629 59.5645 63.2539C59.4336 62.5645 58.8887 62.1152 58.125 62.0469C57.7598 62.0137 57.4023 62.0449 57.0547 62.1699C56.5449 62.3535 56.0703 62.6035 55.6094 62.8828C55.4844 62.959 55.4453 63.0527 55.4453 63.1953C55.4492 65.0859 55.4473 66.9766 55.4492 68.8672C55.4492 68.9258 55.4512 68.9844 55.457 69.043C55.4883 69.3359 55.6172 69.4824 55.9043 69.5488C56.0977 69.5938 56.2949 69.5703 56.4902 69.5781C56.5781 69.5801 56.6758 69.5566 56.791 69.6094ZM116.84 69.3789C116.871 69.5254 116.869 69.6387 116.838 69.7715C115.857 69.9063 114.902 70.1426 113.922 70.4023C113.842 70.1113 113.891 69.8379 113.881 69.5723C113.873 69.3125 113.879 69.0527 113.879 68.7695C113.729 68.8008 113.66 68.8887 113.58 68.9531C113.182 69.2695 112.779 69.582 112.336 69.8379C111.686 70.2148 110.992 70.4121 110.236 70.3906C109.197 70.3613 108.389 69.6855 108.188 68.6641C108.139 68.4141 108.123 68.1602 108.123 67.9043C108.125 66.2988 108.123 64.6914 108.123 63.0859C108.123 62.9492 108.125 62.8106 108.117 62.6738C108.094 62.2793 107.896 62.0098 107.521 61.8848C107.338 61.8242 107.145 61.7891 106.961 61.7441C106.92 61.6289 106.92 61.5254 106.963 61.4004C107.139 61.3848 107.322 61.3633 107.506 61.3516C108.131 61.3145 108.758 61.2813 109.383 61.2461C109.65 61.2305 109.703 61.2793 109.717 61.5605C109.725 61.7266 109.725 61.8926 109.725 62.0605C109.725 63.6563 109.725 65.2539 109.727 66.8496C109.727 67.2324 109.74 67.6133 109.824 67.9883C110.098 69.2344 111.148 69.4609 111.938 69.2441C112.514 69.0859 113.008 68.7676 113.482 68.418C113.896 68.1133 113.895 68.1113 113.895 67.6074C113.895 66.0508 113.885 64.4922 113.902 62.9356C113.906 62.5918 113.764 62.4082 113.479 62.2813C113.191 62.1543 112.891 62.0703 112.59 61.9824C112.479 61.9492 112.367 61.918 112.268 61.8887C112.191 61.7715 112.225 61.666 112.23 61.5508C112.432 61.4785 112.641 61.4941 112.84 61.4746C113.619 61.3945 114.398 61.3281 115.178 61.2578C115.447 61.2344 115.48 61.2637 115.498 61.5352C115.506 61.6523 115.502 61.7695 115.502 61.8867V68.7617C115.502 69.3203 115.561 69.3731 116.129 69.377C116.359 69.3828 116.592 69.3399 116.84 69.3789ZM64.0859 64.6055C64.0156 65.9336 64.1621 67.1953 65.0723 68.248C65.5313 68.7793 66.1035 69.1133 66.8125 69.1836C67.3535 69.2383 67.8613 69.1172 68.3496 68.8906C68.752 68.7031 69.1055 68.4414 69.4356 68.1445C69.5293 68.0606 69.623 67.9727 69.7246 67.8789C69.8477 67.9316 69.9199 68.0313 70.0098 68.1465C69.1816 69.2129 68.2676 70.1563 66.8477 70.3516C65.3359 70.5605 63.9453 70.0176 63.1504 68.5859C62.5586 67.5195 62.4121 66.3691 62.5371 65.1758C62.6191 64.4004 62.8184 63.6543 63.2246 62.9805C63.9277 61.8086 64.9492 61.0859 66.3203 60.957C67.5645 60.8399 69.125 61.4453 69.6973 62.9023C69.8711 63.3477 69.9355 63.8086 69.9141 64.2832C69.9062 64.4648 69.8262 64.5449 69.6445 64.5645C69.5664 64.5723 69.4883 64.5664 69.4102 64.5664C67.7559 64.5664 66.1016 64.5664 64.4453 64.5684C64.3379 64.5703 64.2305 64.5508 64.0859 64.6055ZM64.1641 63.8945C64.25 63.9453 64.3301 63.9316 64.4082 63.9316H67.5781C67.6465 63.9316 67.7148 63.9316 67.7832 63.9219C68.0566 63.8809 68.1777 63.752 68.2031 63.4785C68.2188 63.3008 68.1856 63.125 68.1484 62.9551C68.002 62.291 67.627 61.8106 66.9492 61.6504C66.1816 61.4668 65.4922 61.6524 64.9336 62.2266C64.4785 62.6895 64.2676 63.2695 64.1641 63.8945ZM60.5117 74.834C60.4551 74.6992 60.4648 74.5859 60.4883 74.4844C60.5332 74.4258 60.584 74.4258 60.6328 74.4277C61.8281 74.4766 63.0215 74.4336 64.2168 74.4297C64.5703 74.4277 64.9199 74.4766 65.2598 74.5742C66.6152 74.9629 67.0723 76.6094 66.1172 77.6563C65.9102 77.8828 65.6602 78.0527 65.3906 78.1973C65.3145 78.2383 65.2227 78.2539 65.1504 78.3438C65.1738 78.4395 65.2481 78.5195 65.3047 78.6055C65.8086 79.3633 66.3223 80.1172 66.8184 80.8809C67.0996 81.3144 67.4043 81.6992 67.9727 81.6875C68.0332 81.8301 68.0195 81.9434 68.002 82.0527C67.9141 82.1367 67.8105 82.1133 67.7168 82.1055C67.1777 82.0684 66.6406 82.0684 66.1016 82.1016C65.918 82.1133 65.7988 82.0566 65.6855 81.9023C64.9902 80.9531 64.3672 79.957 63.7832 78.9375C63.5742 78.5723 63.5742 78.5723 63.1465 78.584C63.0879 78.5859 63.0293 78.5781 62.9688 78.6172C62.9082 78.6738 62.9316 78.7578 62.9316 78.832C62.9297 79.4785 62.9277 80.125 62.9316 80.7715C62.9316 80.9082 62.9473 81.0449 62.9688 81.1797C63.0234 81.5195 63.1758 81.6582 63.5137 81.6777C63.668 81.6855 63.8242 81.6797 63.9785 81.6797C64.0488 81.8184 64.0234 81.9336 64.0176 82.0469C63.916 82.1465 63.791 82.1094 63.6797 82.1074C63.043 82.1016 62.4063 82.0859 61.7695 82.082C61.457 82.0801 61.1426 82.1016 60.8301 82.1074C60.7246 82.1094 60.6152 82.125 60.5078 82.0801C60.4551 81.9668 60.4688 81.8535 60.4941 81.7344C60.5996 81.6582 60.7227 81.6934 60.8359 81.6836C61.2656 81.6465 61.4512 81.4551 61.4512 81.0254C61.4531 79.2422 61.4512 77.459 61.4512 75.6777C61.4512 75.541 61.4434 75.4043 61.4062 75.2715C61.3301 74.9941 61.1953 74.875 60.9141 74.8516C60.7852 74.8437 60.6582 74.8418 60.5117 74.834ZM62.9395 78.0918C63.3418 78.0977 63.7129 78.1211 64.0781 78.0313C64.5488 77.916 64.8477 77.627 64.9707 77.1563C65.0449 76.8691 65.0645 76.5781 65.043 76.2832C64.9688 75.2461 63.9316 74.6016 62.9375 74.9863C62.9395 76.0078 62.9395 77.0313 62.9395 78.0918ZM102.666 70.0742C102.641 69.9063 102.645 69.7539 102.666 69.5762C102.848 69.5762 103.012 69.5781 103.176 69.5762C103.293 69.5742 103.412 69.5742 103.527 69.5527C103.807 69.5 103.934 69.3613 103.965 69.0781C103.98 68.9414 103.982 68.8047 103.982 68.668C103.982 65.1035 103.984 61.541 103.982 57.9766C103.982 57.7227 103.975 57.4668 103.955 57.2129C103.91 56.6641 103.734 56.4473 103.217 56.2813C103.125 56.252 103.035 56.2207 102.938 56.1875C102.93 56.1309 102.92 56.082 102.918 56.0352C102.918 55.9883 102.928 55.9395 102.932 55.8965C103.072 55.8008 103.229 55.7734 103.375 55.7188C103.99 55.4922 104.594 55.2402 105.166 54.9141C105.225 54.8809 105.285 54.8457 105.35 54.8223C105.467 54.7793 105.549 54.832 105.568 54.9453C105.588 55.0605 105.586 55.1797 105.586 55.2969V68.6309C105.586 68.7481 105.584 68.8652 105.59 68.9824C105.611 69.3438 105.766 69.5137 106.127 69.5606C106.242 69.5762 106.361 69.5684 106.479 69.5742C106.613 69.582 106.752 69.5566 106.896 69.5977C106.951 69.7461 106.926 69.8984 106.916 70.0488C106.783 70.082 103.012 70.1035 102.666 70.0742ZM77.7422 67.4199C77.8613 67.3867 77.9473 67.332 78.0469 67.3418C78.1309 67.3926 78.123 67.4766 78.1426 67.5508C78.2578 67.9902 78.4199 68.4082 78.6914 68.7754C79.2949 69.5898 80.1113 69.8965 81.0918 69.7031C82.1504 69.4941 82.5859 68.3145 81.9512 67.4356C81.7871 67.209 81.5723 67.041 81.3399 66.8926C81.0254 66.6914 80.6856 66.5391 80.3496 66.3828C79.8789 66.1641 79.4063 65.9531 78.9805 65.6504C78.5469 65.3438 78.207 64.9629 78.0254 64.4531C77.5332 63.0801 78.2168 61.6699 79.6231 61.166C80.4121 60.8828 81.2149 60.8828 82.0234 61.0762C82.4434 61.1758 82.8496 61.3106 83.2461 61.5293C83.2988 62.1953 83.3652 62.8613 83.3809 63.5469C83.2246 63.5762 83.0918 63.5723 82.9512 63.5508C82.8984 63.3574 82.8535 63.168 82.793 62.9844C82.4102 61.8496 81.2188 61.2852 80.0898 61.6953C79.207 62.0156 78.9102 62.9981 79.4629 63.7617C79.6387 64.0039 79.873 64.1797 80.127 64.334C80.4785 64.5488 80.8594 64.7051 81.2363 64.8691C81.6133 65.0332 81.9941 65.1895 82.3516 65.3945C82.5039 65.4824 82.6523 65.5762 82.7988 65.6758C84.2012 66.6328 84.1094 68.5586 82.9941 69.5449C82.502 69.9805 81.9199 70.2148 81.2813 70.3262C80.1914 70.5137 79.1602 70.3184 78.1738 69.8359C78.0469 69.7734 77.9434 69.709 77.9297 69.541C77.875 68.8789 77.8086 68.2168 77.7481 67.5527C77.7402 67.5156 77.7422 67.4766 77.7422 67.4199ZM70.873 62.3828C70.8418 62.2871 70.8418 62.1914 70.877 62.0762C71.4356 61.8262 72.002 61.5625 72.5566 61.2773C72.7383 61.1836 72.9199 61.0859 73.1094 61.0039C73.3652 60.8926 73.4512 60.9434 73.4551 61.2266C73.4648 61.707 73.457 62.1856 73.4609 62.666C73.4609 62.7598 73.4297 62.8594 73.5 62.9512C73.6016 62.9043 73.6328 62.8086 73.6836 62.7305C73.9688 62.3066 74.2715 61.8984 74.6543 61.5566C74.9981 61.252 75.3789 61.0293 75.8438 60.959C76.1172 60.918 76.3711 60.959 76.6133 61.0762C77.2031 61.3613 77.3867 62.082 77.0156 62.623C76.7383 63.0293 76.2188 63.1465 75.7969 62.8965C75.7051 62.8418 75.6211 62.7734 75.5293 62.7149C75.2363 62.5274 74.9297 62.5 74.6035 62.623C73.916 62.8848 73.4883 63.4629 73.4844 64.1934C73.4746 65.7598 73.4785 67.3262 73.4824 68.8926C73.4844 69.3848 73.6641 69.5625 74.1602 69.5703C74.6094 69.5781 75.0586 69.5723 75.5195 69.5723C75.582 69.7461 75.5566 69.9043 75.541 70.0977C73.8242 70.0566 72.125 70.0273 70.416 70.1016C70.3555 69.9277 70.3809 69.7754 70.3887 69.6152C70.5156 69.5352 70.6563 69.582 70.7891 69.5742C70.9746 69.5645 71.1621 69.5781 71.3457 69.5586C71.6973 69.5215 71.8457 69.3574 71.8652 69.0039C71.8711 68.916 71.8691 68.8281 71.8691 68.7402C71.8691 66.9883 71.8574 65.2344 71.877 63.4824C71.8828 63.0039 71.6856 62.7285 71.2656 62.5605C71.1387 62.5098 70.9941 62.4707 70.873 62.3828ZM59.3594 76.1758C59.2422 76.207 59.1309 76.2344 59.0117 76.2656C58.959 76.1348 58.9492 76.0078 58.9316 75.8828C58.8535 75.3516 58.6074 75.0977 58.082 75.0273C57.4785 74.9453 56.8731 75.0078 56.2773 74.9883C56.2129 75.2285 56.1953 77.2891 56.2461 77.7031C56.2891 77.7559 56.3516 77.7441 56.4082 77.7461C56.7813 77.748 57.1523 77.752 57.5254 77.7461C57.9375 77.7383 58.1309 77.5801 58.2305 77.1797C58.2578 77.0664 58.2793 76.9512 58.3027 76.8379C58.418 76.7734 58.5352 76.8047 58.6895 76.8106C58.6895 77.666 58.6602 78.5215 58.7012 79.3613C58.5703 79.4453 58.457 79.459 58.3242 79.4453C58.2441 79.3086 58.2637 79.1465 58.2344 78.9981C58.1504 78.5762 58 78.418 57.5684 78.3984C57.1387 78.3809 56.707 78.3945 56.293 78.3945C56.2109 78.4531 56.2246 78.5273 56.2246 78.5938C56.2227 79.3477 56.2207 80.1016 56.2246 80.8574C56.2266 81.2578 56.3945 81.4531 56.793 81.5098C57.3789 81.5918 57.9668 81.5723 58.5488 81.4883C59.0137 81.4219 59.3359 81.1602 59.5117 80.7246C59.5762 80.5625 59.6348 80.3984 59.7031 80.2188C59.8242 80.25 59.9336 80.2773 60.0664 80.3125C59.9375 80.916 59.8106 81.5039 59.6836 82.1016H53.8223C53.7481 81.9766 53.7676 81.8555 53.8027 81.7227C53.9414 81.6797 54.0781 81.7012 54.2129 81.6895C54.5508 81.6602 54.7051 81.5137 54.7402 81.1758C54.7481 81.0977 54.7461 81.0195 54.7461 80.9414C54.7461 79.168 54.7402 77.3945 54.75 75.623C54.7539 75.0117 54.5547 74.8457 54.0195 74.8516C53.9531 74.8516 53.8828 74.8652 53.8106 74.8184C53.7559 74.7148 53.7734 74.6016 53.793 74.4902C53.9121 74.4551 59.0996 74.4316 59.3613 74.4688C59.3594 75.0176 59.3594 75.5801 59.3594 76.1758ZM84.6465 81.7266C84.6816 81.8418 84.6641 81.9473 84.6602 82.0938C84.3125 82.1328 83.9629 82.0723 83.6172 82.0801C83.2559 82.0898 82.8926 82.082 82.5312 82.082H81.4688C81.4141 81.9648 81.4453 81.8438 81.4492 81.7051C81.6035 81.6934 81.7383 81.6914 81.8711 81.6719C82.1953 81.625 82.2832 81.502 82.1855 81.1875C82.0059 80.6094 81.8066 80.0371 81.6211 79.4727C81.3789 79.4199 79.7578 79.4043 79.2207 79.4473C79.2051 79.4727 79.1758 79.502 79.1641 79.5352C78.9961 80.0664 78.8359 80.5996 78.6602 81.1289C78.5664 81.4141 78.6211 81.5742 78.9746 81.6523C79.1523 81.6914 79.3398 81.6895 79.5234 81.7051C79.5703 81.8301 79.5566 81.9453 79.5352 82.0898C79.2578 82.1309 78.9766 82.0703 78.6992 82.0781C78.416 82.0859 78.1309 82.0859 77.8477 82.0762C77.5664 82.0664 77.2852 82.1328 76.9981 82.084C76.9492 81.9609 76.9805 81.8457 76.9746 81.752C77.0215 81.6855 77.0703 81.6856 77.1191 81.6836C77.5547 81.666 77.8262 81.4258 77.9727 81.0352C78.1465 80.5684 78.3066 80.0957 78.4688 79.625C78.9922 78.1094 79.5273 76.5977 80.0293 75.0742C80.1328 74.7617 80.2539 74.541 80.5859 74.4492C80.7422 74.4062 80.8848 74.3066 81.0313 74.2285C81.293 74.0918 81.3379 74.1055 81.4336 74.3789C81.6699 75.043 81.9043 75.707 82.1367 76.3711C82.6504 77.8379 83.1641 79.3066 83.6797 80.7734C83.7344 80.9297 83.7969 81.084 83.8594 81.2383C83.9727 81.5215 84.1699 81.6816 84.4844 81.6816C84.5234 81.6816 84.5625 81.6895 84.6016 81.6953C84.6113 81.7031 84.6191 81.7109 84.6465 81.7266ZM79.4375 78.7109H81.3359C81.0254 77.7559 80.7246 76.8262 80.4238 75.8984C80.4023 75.8984 80.3828 75.8984 80.3613 75.8965C80.0586 76.8203 79.7559 77.7422 79.4375 78.7109ZM120.203 81.707C120.244 81.8418 120.238 81.9551 120.205 82.1094C119.154 82.0723 118.102 82.0723 117.055 82.1133C116.979 81.9727 117 81.8516 117.023 81.7207C117.162 81.6719 117.301 81.6973 117.434 81.6758C117.758 81.625 117.85 81.5059 117.754 81.1973C117.572 80.6094 117.369 80.0293 117.174 79.4434H114.777C114.676 79.6367 114.637 79.8398 114.576 80.0352C114.455 80.418 114.33 80.7988 114.221 81.1836C114.146 81.4473 114.219 81.5527 114.48 81.6426C114.678 81.709 114.889 81.6621 115.09 81.7168C115.135 81.8359 115.123 81.9512 115.098 82.1074C114.256 82.0781 113.412 82.0664 112.559 82.1133C112.533 81.9609 112.527 81.8477 112.555 81.7324C112.586 81.7188 112.613 81.6973 112.639 81.6973C113.141 81.6856 113.424 81.3984 113.578 80.9512C113.906 80.0098 114.238 79.0684 114.561 78.125C114.939 77.0156 115.361 75.918 115.689 74.791C115.721 74.6855 115.768 74.6211 115.867 74.584C116.133 74.4844 116.385 74.3535 116.635 74.2188C116.854 74.0996 116.902 74.1211 116.994 74.3711C117.123 74.7207 117.244 75.0703 117.367 75.4219C117.988 77.1934 118.609 78.9668 119.23 80.7383C119.289 80.9043 119.354 81.0684 119.418 81.2324C119.533 81.5273 119.736 81.6934 120.064 81.6914C120.105 81.6895 120.145 81.6992 120.203 81.707ZM116.904 78.709C116.594 77.752 116.293 76.8262 115.992 75.8984H115.932C115.629 76.8281 115.311 77.7539 115.018 78.709H116.904ZM53.1777 74.1035C53.3125 74.0977 53.4102 74.0859 53.5156 74.1719C53.4395 74.748 53.3555 75.3379 53.3867 75.9336C53.2695 76.0313 53.1426 76.0645 53.0117 76.0898C52.9219 75.9805 52.9492 75.8555 52.9316 75.7422C52.8594 75.2754 52.6367 75.0645 52.1699 75.0566C51.6699 75.0488 51.1719 75.0547 50.6719 75.0547C50.6133 75.0547 50.5527 75.0488 50.4961 75.0918C50.4395 75.1524 50.4629 75.2344 50.4629 75.3086C50.4609 77.1387 50.4629 78.9707 50.4629 80.8008C50.4629 80.8496 50.4609 80.8984 50.4648 80.9473C50.5078 81.4922 50.6914 81.666 51.2383 81.6895C51.334 81.6934 51.4336 81.6777 51.5469 81.7227C51.5938 81.8242 51.5723 81.9395 51.5664 82.0488C51.5078 82.1309 51.4238 82.1152 51.3477 82.1133C50.252 82.0723 49.1563 82.0762 48.0586 82.1133C48.0117 82.1152 47.9629 82.1035 47.9082 82.0977C47.8457 81.9746 47.8652 81.8535 47.8906 81.7207C48.0566 81.6738 48.2227 81.6973 48.3867 81.6856C48.752 81.6621 48.8926 81.5371 48.9434 81.1719C48.9648 81.0176 48.9805 80.8594 48.9805 80.7051C48.9824 78.9238 48.9824 77.1406 48.9805 75.3594C48.9805 75.2734 48.9961 75.1836 48.9551 75.1016C48.8867 75.043 48.8066 75.0566 48.7305 75.0566C48.2109 75.0566 47.6934 75.0566 47.1738 75.0586C47.1055 75.0586 47.0371 75.0645 46.9688 75.0723C46.5703 75.1172 46.4648 75.2051 46.3613 75.5898C46.3242 75.7305 46.293 75.8731 46.2578 76.0176C46.125 76.0645 46.0039 76.0547 45.8555 76.0273C45.918 75.3887 46.0508 74.7676 46.0508 74.1406C46.1621 74.0801 46.2598 74.1133 46.377 74.1035C46.4414 74.3633 46.6426 74.4141 46.873 74.4121C46.9805 74.4121 47.0879 74.418 47.1953 74.418H52.4238C52.5508 74.418 52.6777 74.4102 52.8047 74.4063C53 74.4004 53.1523 74.3399 53.1777 74.1035ZM84.1231 76.0215C83.9844 76.0547 83.8691 76.0566 83.7266 76.0176C83.7832 75.3867 83.9199 74.7676 83.9121 74.1387C84.0234 74.0801 84.1191 74.1016 84.2422 74.1113C84.3086 74.3711 84.5234 74.4141 84.7617 74.4141C84.8691 74.4141 84.9766 74.4238 85.084 74.4238H90.2852C90.3926 74.4238 90.5 74.418 90.6074 74.4121C90.8223 74.4004 91.0332 74.3789 91.041 74.1094C91.1641 74.0879 91.25 74.0996 91.3711 74.1406C91.3262 74.7383 91.2031 75.332 91.2539 75.9277C91.1348 76.041 90.9961 76.0449 90.875 76.1055C90.8047 75.9414 90.8086 75.793 90.7793 75.6504C90.7012 75.2734 90.4941 75.0723 90.1172 75.0625C89.5586 75.0469 89 75.0586 88.4434 75.0605C88.416 75.0605 88.3887 75.0762 88.3594 75.0859C88.2988 75.1641 88.3203 75.2559 88.3203 75.3418C88.3184 77.125 88.3184 78.9062 88.3203 80.6895C88.3203 80.8457 88.3379 81.002 88.3633 81.1563C88.4219 81.5059 88.6016 81.6621 88.9609 81.6836C89.1055 81.6914 89.25 81.6856 89.377 81.6856C89.4609 81.834 89.4199 81.9492 89.4258 82.0586C89.332 82.0879 85.8965 82.1055 85.7637 82.0801C85.7148 82.0332 85.7285 81.9727 85.7285 81.916C85.7285 81.8574 85.7344 81.8008 85.7402 81.7344C85.9004 81.6602 86.0703 81.6973 86.2324 81.6875C86.6113 81.6621 86.7363 81.5605 86.8066 81.1914C86.8242 81.0957 86.8379 80.9981 86.8379 80.9004C86.8398 79.0195 86.8398 77.1387 86.8398 75.2598C86.8398 75.2109 86.834 75.1621 86.8301 75.125C86.7656 75.041 86.6816 75.0586 86.6074 75.0586C86.0781 75.0586 85.5488 75.0586 85.0215 75.0605C84.9238 75.0605 84.8262 75.0781 84.7285 75.0859C84.4707 75.1074 84.3203 75.252 84.2559 75.4961C84.2109 75.6641 84.1699 75.8359 84.1231 76.0215ZM47.9648 62.084C47.9453 61.9648 47.9375 61.877 47.9688 61.7871C48.0781 61.7012 48.2188 61.6855 48.3457 61.6445C48.959 61.4434 49.5801 61.2715 50.1719 61.0078C50.2344 60.9805 50.3008 60.9629 50.3691 60.9492C50.4863 60.9258 50.5625 60.9785 50.5742 61.0977C50.5879 61.2246 50.5918 61.3516 50.5918 61.4785C50.5918 63.8672 50.5918 66.2559 50.5938 68.6445C50.5938 68.7813 50.5957 68.9199 50.6133 69.0547C50.6504 69.3633 50.7832 69.5078 51.0977 69.5527C51.291 69.5801 51.4883 69.5703 51.6836 69.5762C51.75 69.5781 51.8184 69.5762 51.8672 69.5762C51.9551 69.6563 51.9258 69.7402 51.9316 69.8145C51.9356 69.8926 51.9336 69.9707 51.9336 70.0449C51.8594 70.0664 47.793 70.082 47.6699 70.0625C47.6484 69.9141 47.6465 69.7637 47.6719 69.6133C47.7754 69.5547 47.875 69.582 47.9688 69.5781C48.1348 69.5723 48.3027 69.582 48.4668 69.5645C48.8145 69.5254 48.9688 69.3574 48.9922 69.0098C48.998 68.9219 48.9961 68.834 48.9961 68.7461V63.6348C48.9961 63.6055 48.9941 63.5762 48.9961 63.5469C49.0449 62.9297 48.7969 62.4863 48.2266 62.2305C48.1367 62.1895 48.0547 62.1348 47.9648 62.084ZM126.34 82.0938H120.541C120.518 81.9629 120.514 81.8496 120.543 81.7285C120.662 81.6641 120.793 81.6934 120.916 81.6836C121.291 81.6543 121.457 81.4883 121.482 81.1094C121.488 81.0215 121.488 80.9336 121.488 80.8457V75.5879C121.488 74.9902 121.371 74.8691 120.775 74.8438C120.707 74.8418 120.641 74.8359 120.578 74.832C120.527 74.6543 120.527 74.6543 120.563 74.4277C121.688 74.4551 122.818 74.4648 123.949 74.4238C124.012 74.5703 124 74.6895 123.961 74.8516C123.785 74.8516 123.611 74.8438 123.438 74.8535C123.129 74.8691 123.016 74.9785 122.988 75.2813C122.98 75.3789 122.98 75.4766 122.98 75.5742V80.8027C122.98 81.3867 123.129 81.5313 123.723 81.5742C124.096 81.6016 124.465 81.5859 124.838 81.5664C125.549 81.5293 126.031 81.1738 126.271 80.5078C126.309 80.4082 126.342 80.3066 126.371 80.2207C126.436 80.166 126.496 80.1699 126.555 80.1719C126.611 80.1738 126.672 80.1602 126.725 80.1953C126.754 80.4316 126.549 81.457 126.34 82.0938ZM91.7363 74.832C91.6875 74.6895 91.6953 74.584 91.7187 74.4785C91.8223 74.4492 94.9102 74.4336 95.0918 74.4629C95.127 74.5703 95.1211 74.6836 95.0977 74.8047C94.9688 74.877 94.8281 74.8398 94.6953 74.8516C94.3359 74.8848 94.1894 75.0254 94.1602 75.3828C94.1523 75.4805 94.1543 75.5781 94.1543 75.6758V80.873C94.1543 80.9902 94.1543 81.1094 94.168 81.2246C94.2012 81.5039 94.3398 81.6426 94.6191 81.6758C94.7637 81.6934 94.9121 81.6914 95.0606 81.6992C95.1504 81.8184 95.1094 81.9414 95.1035 82.0586C95.0059 82.0859 91.8398 82.0938 91.7344 82.0703C91.6973 82.0313 91.7012 81.9805 91.7012 81.9336C91.6992 81.8652 91.6934 81.7969 91.7344 81.7227C91.8535 81.6582 91.9941 81.6934 92.1289 81.6816C92.4785 81.6484 92.6387 81.4902 92.6582 81.1406C92.6621 81.0723 92.6602 81.0039 92.6602 80.9355V75.5918C92.6602 75.5332 92.6621 75.4746 92.6602 75.416C92.6445 75.0469 92.4883 74.8828 92.123 74.8535C91.9961 74.8438 91.8691 74.8379 91.7363 74.832ZM50.7734 56.8711C50.7656 57.416 50.3047 57.875 49.7813 57.8613C49.2754 57.8477 48.8164 57.3711 48.8184 56.8613C48.8203 56.3594 49.3027 55.8887 49.8086 55.8926C50.3379 55.8965 50.7793 56.3457 50.7734 56.8711Z" fill="black"/>
<path d="M126.75 75.3458C126.855 75.5547 127.01 75.709 127.145 75.8829C126.977 75.9493 126.869 75.8946 126.785 75.7657C126.723 75.6661 126.656 75.5684 126.592 75.4708C126.559 75.418 126.518 75.379 126.426 75.4083C126.395 75.5743 126.355 75.7481 126.521 75.9024H126.115C126.232 75.502 126.195 75.1114 126.141 74.6895C126.271 74.6895 126.441 74.6856 126.611 74.6915C126.766 74.6954 126.912 74.7344 126.973 74.8926C127.037 75.0606 126.969 75.1973 126.824 75.2989C126.799 75.3145 126.775 75.3301 126.75 75.3458ZM126.416 74.795C126.4 74.9688 126.395 75.1212 126.42 75.2715C126.672 75.3008 126.75 75.2442 126.758 75.0411C126.764 74.8419 126.689 74.7833 126.416 74.795Z" fill="black"/>
<path fill-rule="evenodd" clip-rule="evenodd" d="M152 2H8C4.68629 2 2 4.68629 2 8V92C2 95.3137 4.68629 98 8 98H152C155.314 98 158 95.3137 158 92V8C158 4.68629 155.314 2 152 2ZM8 0C3.58172 0 0 3.58172 0 8V92C0 96.4183 3.58172 100 8 100H152C156.418 100 160 96.4183 160 92V8C160 3.58172 156.418 0 152 0H8Z" fill="#DDDDD8"/>
</svg>
