<svg width="160" height="100" viewBox="0 0 160 100" fill="none" xmlns="http://www.w3.org/2000/svg">
<g clip-path="url(#clip0_25262_18252)">
<rect width="160" height="100" rx="8" fill="white"/>
<path d="M23.8203 36.2969C20.998 35.7578 18.1367 36.0566 15.293 36.0195C15.2051 36.0176 15.1172 36.1133 15.0645 36.1445V56.8574C17.5996 56.834 20.084 56.9414 22.5645 56.7617C27.6602 56.3906 31.9043 52.1582 32.1797 47.2031C32.4863 41.6621 29.1797 37.3223 23.8203 36.2969ZM26.7754 50.5254C25.4219 52.5879 22.748 53.6484 19.0996 53.2207V39.7383C21.9902 39.0527 25.2363 40.1816 26.7578 42.3789C28.4004 44.748 28.3867 48.0723 26.7754 50.5254ZM142.48 52.4356C141.43 51.0215 140.381 49.6035 139.281 48.1191C139.682 47.9785 139.988 47.877 140.293 47.7637C141.734 47.2285 142.828 46.3027 143.451 44.8828C145.145 41.0234 143.174 37.1523 139.066 36.2715C136.768 35.7773 134.434 36.0723 132.115 36.0059C131.627 35.9922 131.139 36.0039 130.605 36.0039V56.7852H134.652V48.6504C135.289 48.4043 135.398 48.8926 135.596 49.1816C137.322 51.7187 139.035 54.2637 140.742 56.7949H145.723C144.582 55.2598 143.529 53.8477 142.48 52.4356ZM134.676 45.6152V39.3242C136.33 39.2656 137.98 39.0977 139.188 40.5391C139.91 41.4023 139.977 43.1621 139.316 44.1445C138.197 45.8125 136.461 45.6426 134.676 45.6152ZM116.396 56.791H127.822V53.377C125.334 53.2402 122.885 53.4609 120.428 53.2754V47.7207H127.494V44.1621H120.469V39.5684H127.828V36.0527H116.396V56.791ZM104.43 49.9727L98.9277 36.0781H94.4082C97.3906 43.2539 100.326 50.3203 103.25 57.3613H105.455C108.445 50.2793 111.434 43.209 114.459 36.0449H110.02C108.18 40.6328 106.352 45.1856 104.43 49.9727ZM50.3828 44.9863C49.7637 44.6797 49.123 44.4141 48.4805 44.1621C47.6816 43.8496 46.8711 43.5703 46.1152 43.1563C45.3574 42.7402 44.8457 42.1836 44.9277 41.2441C45.0059 40.332 45.5527 39.7754 46.3418 39.4609C47.8535 38.8555 49.2656 39.0469 50.541 40.0996C50.7637 40.2832 50.9063 40.5879 51.3066 40.6387C51.9766 39.7969 52.6563 38.9414 53.3301 38.0937C51.0469 35.7754 46.8848 35.0215 44.082 36.3945C41.8984 37.4648 40.7441 39.2441 40.6777 41.6797C40.6133 44.082 41.8672 45.6289 43.9766 46.5762C44.6836 46.8926 45.4043 47.1738 46.1211 47.4668C46.8379 47.7598 47.5742 48.0117 48.2715 48.3438C49.4004 48.8809 49.9277 49.7852 49.8359 50.9316C49.7383 52.1582 49.1074 52.9961 47.9492 53.418C46.3594 53.998 44.3145 53.4316 43.1094 52.0684C42.7988 51.7188 42.5332 51.3301 42.2891 51.0137C41.4648 51.8262 40.6445 52.6348 39.7734 53.4922C41.6699 56.6211 45.3965 58.0801 49.0527 57.1172C51.9531 56.3516 53.7363 54.2422 54.0547 51.1953C54.3672 48.2441 53.2969 46.4258 50.3828 44.9863ZM61.8672 51.9375C59.3125 49.6309 58.7617 45.4746 60.6387 42.5117C61.5273 41.1074 62.7441 40.0938 64.3496 39.6055C67.0254 38.791 69.332 39.5352 71.3867 41.5313V36.8887C67.3789 34.4336 61.4922 35.4648 58.1621 39.1738C54.6094 43.1328 54.3516 48.916 57.5449 53.0684C60.7129 57.1875 66.6621 58.5273 71.3555 56.1523C71.5371 54.5605 71.4766 52.1074 71.2481 51.5527C67.9004 54.1504 64.4766 54.291 61.8672 51.9375ZM34.1309 56.7969H38.0645V36.041H34.1309V56.7969Z" fill="black"/>
<path d="M72.8711 46.4824C72.8711 49.4091 74.0337 52.216 76.1032 54.2854C78.1727 56.3549 80.9795 57.5176 83.9062 57.5176C86.833 57.5176 89.6398 56.3549 91.7093 54.2854C93.7788 52.216 94.9414 49.4091 94.9414 46.4824C94.9414 43.5557 93.7788 40.7489 91.7093 38.6794C89.6398 36.6099 86.833 35.4473 83.9062 35.4473C80.9795 35.4473 78.1727 36.6099 76.1032 38.6794C74.0337 40.7489 72.8711 43.5557 72.8711 46.4824Z" fill="#F07824"/>
<path d="M145.541 36.541H144.793V38.0859H145.107V37.4395H145.527L146.09 38.0859H146.447L145.848 37.4141C146.164 37.3613 146.373 37.2187 146.373 36.9785C146.373 36.6543 146.023 36.541 145.541 36.541ZM145.109 37.2715V36.707H145.498C145.861 36.707 146.061 36.7773 146.061 36.9785C146.061 37.1758 145.861 37.2715 145.498 37.2715H145.109Z" fill="black"/>
<path d="M145.619 35.6582C144.707 35.6582 143.965 36.4004 143.965 37.3145C143.965 38.2266 144.707 38.9688 145.619 38.9688C146.531 38.9688 147.275 38.2266 147.275 37.3145C147.275 36.4004 146.533 35.6582 145.619 35.6582ZM145.619 38.748C144.828 38.748 144.186 38.1035 144.186 37.3145C144.186 36.5234 144.83 35.8809 145.619 35.8809C146.41 35.8809 147.053 36.5234 147.053 37.3145C147.055 38.1035 146.41 38.748 145.619 38.748Z" fill="black"/>
<path d="M158 58.1237C137.198 72.6988 81.2803 92.6537 47 100H148.622C152.274 100 155.586 98.4621 158 95.9694V58.1237Z" fill="#F07824"/>
<path fill-rule="evenodd" clip-rule="evenodd" d="M152 2H8C4.68629 2 2 4.68629 2 8V92C2 95.3137 4.68629 98 8 98H152C155.314 98 158 95.3137 158 92V8C158 4.68629 155.314 2 152 2ZM8 0C3.58172 0 0 3.58172 0 8V92C0 96.4183 3.58172 100 8 100H152C156.418 100 160 96.4183 160 92V8C160 3.58172 156.418 0 152 0H8Z" fill="#DDDDD8"/>
</g>
<defs>
<clipPath id="clip0_25262_18252">
<rect width="160" height="100" fill="white"/>
</clipPath>
</defs>
</svg>
