<svg width="160" height="100" viewBox="0 0 160 100" fill="none" xmlns="http://www.w3.org/2000/svg">
<path d="M0 8C0 3.58172 3.58172 0 8 0H152C156.418 0 160 3.58172 160 8V92C160 96.4183 156.418 100 152 100H8C3.58172 100 0 96.4183 0 92V8Z" fill="white"/>
<path fill-rule="evenodd" clip-rule="evenodd" d="M152 2H8C4.68629 2 2 4.68629 2 8V92C2 95.3137 4.68629 98 8 98H152C155.314 98 158 95.3137 158 92V8C158 4.68629 155.314 2 152 2ZM8 0C3.58172 0 0 3.58172 0 8V92C0 96.4183 3.58172 100 8 100H152C156.418 100 160 96.4183 160 92V8C160 3.58172 156.418 0 152 0H8Z" fill="#DDDDD8"/>
<g clip-path="url(#clip0_40129_27245)">
<path d="M76.416 52.6144V67.9836H71.5403V30.0284H84.4716C86.0152 29.9962 87.5498 30.2699 88.987 30.8339C90.4242 31.3979 91.7355 32.2409 92.8452 33.3143C93.9661 34.3225 94.8581 35.559 95.4615 36.9406C96.0648 38.3222 96.3654 39.817 96.343 41.3244C96.3751 42.8399 96.0791 44.3445 95.4754 45.7349C94.8717 47.1253 93.9744 48.3688 92.8452 49.38C90.584 51.5363 87.7928 52.6134 84.4716 52.6114H76.416V52.6144ZM76.416 34.7013V47.9506H84.5927C85.4891 47.9772 86.3812 47.8164 87.2119 47.4785C88.0427 47.1405 88.7937 46.633 89.417 45.9882C90.0371 45.3854 90.53 44.6643 90.8665 43.8677C91.2031 43.071 91.3765 42.215 91.3765 41.3502C91.3765 40.4854 91.2031 39.6293 90.8665 38.8327C90.53 38.0361 90.0371 37.315 89.417 36.7122C88.8015 36.0538 88.0531 35.5338 87.2214 35.1866C86.3897 34.8394 85.4937 34.6729 84.5927 34.6983H76.416V34.7013Z" fill="#5F6368"/>
<path d="M107.578 41.1667C111.182 41.1667 114.027 42.1298 116.113 44.0559C118.198 45.9819 119.24 48.6227 119.238 51.9782V67.9834H114.574V64.3796H114.362C112.343 67.3474 109.658 68.8314 106.307 68.8314C103.446 68.8314 101.052 67.9834 99.1261 66.2875C98.2018 65.5091 97.4628 64.5343 96.963 63.4341C96.4632 62.3339 96.2152 61.136 96.237 59.9278C96.237 57.2406 97.2525 55.1035 99.2836 53.5166C101.315 51.9298 104.026 51.1343 107.418 51.1302C110.313 51.1302 112.697 51.6602 114.571 52.7202V51.6057C114.577 50.782 114.399 49.9674 114.05 49.221C113.702 48.4746 113.192 47.8151 112.557 47.2902C111.268 46.1269 109.587 45.4922 107.851 45.5125C105.127 45.5125 102.972 46.6613 101.385 48.9589L97.091 46.2545C99.4532 42.8627 102.949 41.1667 107.578 41.1667ZM101.27 60.0338C101.267 60.6543 101.412 61.2667 101.693 61.8198C101.975 62.3729 102.384 62.8508 102.887 63.2136C103.966 64.0619 105.304 64.5112 106.676 64.4856C108.733 64.4821 110.706 63.6632 112.16 62.2082C113.776 60.6879 114.583 58.9042 114.583 56.857C113.063 55.6456 110.943 55.0399 108.224 55.0399C106.243 55.0399 104.591 55.5174 103.269 56.4724C101.933 57.4415 101.27 58.6195 101.27 60.0338Z" fill="#5F6368"/>
<path d="M146.009 42.0149L129.728 79.431H124.695L130.737 66.3392L120.031 42.0149H125.331L133.069 60.67H133.175L140.7 42.0149H146.009Z" fill="#5F6368"/>
<path d="M56.7131 49.301C56.715 47.8151 56.5893 46.3318 56.3376 44.8674H35.7746V53.2652H47.5521C47.3111 54.6065 46.8011 55.8851 46.0526 57.0239C45.3042 58.1627 44.3329 59.1381 43.1973 59.8914V65.3426H50.2262C54.3419 61.548 56.7131 55.9363 56.7131 49.301Z" fill="#4285F4"/>
<path d="M35.7746 70.6092C41.6588 70.6092 46.6133 68.6771 50.2262 65.3458L43.1973 59.8947C41.2409 61.2211 38.7213 61.9782 35.7746 61.9782C30.0873 61.9782 25.26 58.1443 23.5338 52.9778H16.2928V58.5955C18.1076 62.2068 20.8905 65.2427 24.3307 67.3641C27.7708 69.4855 31.7329 70.6091 35.7746 70.6092Z" fill="#34A853"/>
<path d="M23.5337 52.9777C22.6212 50.2704 22.6212 47.3387 23.5337 44.6314V39.0137H16.2928C14.7661 42.0516 13.971 45.4045 13.971 48.8046C13.971 52.2046 14.7661 55.5575 16.2928 58.5954L23.5337 52.9777Z" fill="#FBBC04"/>
<path d="M35.7746 35.631C38.8842 35.5802 41.8888 36.755 44.1391 38.9017L50.3625 32.6783C46.4162 28.9717 41.1883 26.9367 35.7746 27C31.7329 27.0001 27.7708 28.1237 24.3307 30.2451C20.8905 32.3665 18.1076 35.4024 16.2928 39.0137L23.5338 44.6314C25.26 39.4649 30.0873 35.631 35.7746 35.631Z" fill="#EA4335"/>
</g>
<defs>
<clipPath id="clip0_40129_27245">
<rect width="132.03" height="52.431" fill="white" transform="translate(13.97 27)"/>
</clipPath>
</defs>
</svg>
