<svg width="160" height="100" viewBox="0 0 160 100" fill="none" xmlns="http://www.w3.org/2000/svg">
<rect width="160" height="100" rx="8" fill="white"/>
<path fill-rule="evenodd" clip-rule="evenodd" d="M47 18C41.4772 18 37 22.4772 37 28V55.4887C39.7496 56.7147 42.5894 57.4754 45.4631 57.4754C49.2326 57.4754 51.3234 55.1814 51.3234 52.1079V39.4882H60.6666V52.1079C60.6666 57.0244 57.6318 61 47.2253 61C47.2253 61 41.7387 61 37 59.8819V82H53C58.5228 82 63 77.5228 63 72V18H47Z" fill="#1E4F8F"/>
<path fill-rule="evenodd" clip-rule="evenodd" d="M77 18C71.4772 18 67 22.4772 67 28V41.778C69.8487 39.8093 74.4117 38.6366 81.396 38.9534C81.396 38.9534 85.5358 39.1176 89.9207 40.2258V44.8137C87.7522 43.7086 85.0878 42.6841 81.7245 42.4361C75.8284 41.9881 72.3038 44.8556 72.3038 49.9363C72.3038 55.0171 75.8284 57.8846 81.7245 57.4365C85.0878 57.1886 87.794 56.1253 89.9207 55.0171V59.6469C85.5358 60.7551 81.396 60.9193 81.396 60.9193C74.4117 61.2361 69.8487 60.0634 67 58.0947V82H83C88.5228 82 93 77.5228 93 72V18H77Z" fill="#D8203B"/>
<path fill-rule="evenodd" clip-rule="evenodd" d="M107 18C101.477 18 97 22.4772 97 28V39.488H111.601C111.806 39.488 112.034 39.4998 112.238 39.5104C112.404 39.5191 112.555 39.5269 112.665 39.5269C116.148 39.6912 118.728 41.4953 118.728 44.6106C118.728 47.0271 116.966 49.1179 113.77 49.5689V49.6914C117.295 49.9363 120.001 51.9048 120.001 54.9364C120.001 58.255 117.05 60.3846 113.077 60.3846H97V82H113C118.523 82 123 77.5228 123 72V18H107ZM107.258 42.723H101.559V48.0098H107.258C107.462 48.0098 107.748 48.0098 107.874 47.968C109.062 47.7649 110.042 46.821 110.042 45.3873C110.042 43.9537 109.063 42.9709 107.874 42.7648C107.818 42.7648 107.732 42.7567 107.635 42.7476C107.512 42.7361 107.372 42.723 107.258 42.723ZM107.832 56.9855C108.035 56.9855 108.405 56.9437 108.567 56.9019C109.797 56.657 110.783 55.5906 110.783 54.1152C110.783 52.6815 109.797 51.5763 108.567 51.3284C108.405 51.2895 108.035 51.2477 107.832 51.2477H101.559V56.9855H107.832Z" fill="#4DAD47"/>
<path fill-rule="evenodd" clip-rule="evenodd" d="M152 2H8C4.68629 2 2 4.68629 2 8V92C2 95.3137 4.68629 98 8 98H152C155.314 98 158 95.3137 158 92V8C158 4.68629 155.314 2 152 2ZM8 0C3.58172 0 0 3.58172 0 8V92C0 96.4183 3.58172 100 8 100H152C156.418 100 160 96.4183 160 92V8C160 3.58172 156.418 0 152 0H8Z" fill="#DDDDD8"/>
</svg>
