<?xml version="1.0" standalone="no"?><!DOCTYPE svg PUBLIC "-//W3C//DTD SVG 1.1//EN" "http://www.w3.org/Graphics/SVG/1.1/DTD/svg11.dtd"><svg t="1763088942434" class="icon" viewBox="0 0 1638 1024" version="1.1" xmlns="http://www.w3.org/2000/svg" p-id="13852" xmlns:xlink="http://www.w3.org/1999/xlink" width="38.390625" height="24"><path d="M1556.48 0H81.92A81.92 81.92 0 0 0 0 81.92v860.16A81.92 81.92 0 0 0 81.92 1024h1474.56a81.92 81.92 0 0 0 81.92-81.92V81.92A81.92 81.92 0 0 0 1556.48 0z" fill="#FFB3C7" p-id="13853"></path><path d="M1556.48 20.48H81.92a61.44 61.44 0 0 0-61.44 61.44v860.16a61.44 61.44 0 0 0 61.44 61.44h1474.56a61.44 61.44 0 0 0 61.44-61.44V81.92a61.44 61.44 0 0 0-61.44-61.44z" fill="#FFB3C7" p-id="13854"></path><path d="M1496.35 596.111a40.51 40.51 0 0 0-28.118 11.551 38.277 38.277 0 0 0-11.53 27.648 38.257 38.257 0 0 0 11.53 27.648 40.51 40.51 0 0 0 28.119 11.55A39.444 39.444 0 0 0 1536 635.29a38.298 38.298 0 0 0-11.53-27.648 40.51 40.51 0 0 0-28.12-11.551z m-130.457-30.249c0-29.655-25.62-53.657-57.241-53.657-31.601 0-57.222 24.043-57.222 53.657 0 29.594 25.662 53.597 57.262 53.597 31.622 0 57.201-24.003 57.201-53.597z m0.205-104.284h63.16v208.528h-63.14v-13.312a111.698 111.698 0 0 1-62.627 19.066c-61.481 0-111.31-49.233-111.31-109.977 0-60.764 49.829-109.998 111.31-109.998 23.244 0 44.769 7.024 62.627 19.087V461.6z m-505.446 27.177V461.62h-64.697v208.466h64.84v-97.341c0-32.85 35.983-50.484 60.99-50.484h0.737v-60.64c-25.662 0-49.214 10.854-61.891 27.135z m-161.117 77.107c0-29.655-25.62-53.657-57.241-53.657-31.6 0-57.242 24.043-57.242 53.657 0 29.594 25.662 53.597 57.283 53.597 31.6 0 57.2-24.003 57.2-53.597z m0.205-104.284h63.201v208.528h-63.18v-13.312a111.76 111.76 0 0 1-62.628 19.046c-61.481 0-111.309-49.234-111.309-109.978 0-60.764 49.828-109.998 111.309-109.998 23.245 0 44.77 7.025 62.628 19.088v-13.374z m380.211-5.57c-25.231 0-49.09 7.72-65.085 29.081v-23.47h-62.874v208.466h63.652V560.517c0-31.662 21.504-47.227 47.411-47.227 27.75 0 43.746 16.384 43.746 46.818v109.977h63.078V537.518c0-48.517-39.055-81.51-89.928-81.51zM433.807 670.106h66.13V368.722h-66.13v301.363z m-290.447 0.061h70.042V368.64H143.38v301.527h-0.02zM388.3 368.64c0 65.27-25.743 126.013-71.638 171.13l96.768 130.397h-86.467L221.84 528.487l27.136-20.112a174.592 174.592 0 0 0 52.286-61.645c12.288-24.269 18.596-50.995 18.452-78.09h68.567z" fill="#0A0B09" p-id="13855"></path></svg>