<svg width="160" height="100" viewBox="0 0 160 100" fill="none" xmlns="http://www.w3.org/2000/svg">
<rect width="160" height="100" rx="8" fill="white"/>
<g clip-path="url(#clip0_25262_18294)">
<path d="M35.1392 50C35.1392 57.2883 38.0344 64.278 43.188 69.4316C48.3416 74.5852 55.3314 77.4805 62.6196 77.4805C69.9079 77.4805 76.8977 74.5852 82.0513 69.4316C87.2048 64.278 90.1001 57.2883 90.1001 50C90.1001 42.7117 87.2048 35.722 82.0513 30.5684C76.8977 25.4148 69.9079 22.5195 62.6196 22.5195C55.3314 22.5195 48.3416 25.4148 43.188 30.5684C38.0344 35.722 35.1392 42.7117 35.1392 50Z" fill="#EB001B"/>
<path d="M69.8999 50C69.8999 53.6088 70.6107 57.1822 71.9917 60.5163C73.3727 63.8504 75.3969 66.8798 77.9487 69.4316C80.5005 71.9834 83.53 74.0076 86.864 75.3886C90.1981 76.7697 93.7716 77.4805 97.3804 77.4805C100.989 77.4805 104.563 76.7697 107.897 75.3886C111.231 74.0076 114.26 71.9834 116.812 69.4316C119.364 66.8798 121.388 63.8504 122.769 60.5163C124.15 57.1822 124.861 53.6088 124.861 50C124.861 46.3912 124.15 42.8178 122.769 39.4837C121.388 36.1496 119.364 33.1202 116.812 30.5684C114.26 28.0166 111.231 25.9924 107.897 24.6114C104.563 23.2303 100.989 22.5195 97.3804 22.5195C93.7716 22.5195 90.1981 23.2303 86.864 24.6114C83.53 25.9924 80.5005 28.0166 77.9487 30.5684C75.3969 33.1202 73.3727 36.1496 71.9917 39.4837C70.6107 42.8178 69.8999 46.3912 69.8999 50Z" fill="#F79E1B"/>
<path d="M69.9512 50.0513C69.9512 58.6051 73.86 66.2463 79.9877 71.285C86.1893 66.2463 90.1514 58.56 90.1514 49.9487C90.1514 41.3949 86.2426 33.7537 80.1148 28.7149C73.9133 33.7537 69.9512 41.438 69.9512 50.0513Z" fill="#FF5F00"/>
</g>
<path fill-rule="evenodd" clip-rule="evenodd" d="M152 2H8C4.68629 2 2 4.68629 2 8V92C2 95.3137 4.68629 98 8 98H152C155.314 98 158 95.3137 158 92V8C158 4.68629 155.314 2 152 2ZM8 0C3.58172 0 0 3.58172 0 8V92C0 96.4183 3.58172 100 8 100H152C156.418 100 160 96.4183 160 92V8C160 3.58172 156.418 0 152 0H8Z" fill="#DDDDD8"/>
<defs>
<clipPath id="clip0_25262_18294">
<rect width="90" height="56" fill="white" transform="translate(35 22)"/>
</clipPath>
</defs>
</svg>
