<svg width="101" height="24" viewBox="0 0 101 24" fill="none" xmlns="http://www.w3.org/2000/svg">
<path d="M75.9606 3.54997H69.9693C69.5662 3.54997 69.217 3.84518 69.1364 4.24774L66.7183 19.5718C66.6646 19.867 66.9064 20.1354 67.2019 20.1354H70.2648C70.5603 20.1354 70.8021 19.9207 70.829 19.6523L71.5275 15.3047C71.5813 14.9021 71.9305 14.6069 72.3604 14.6069H74.2411C78.1906 14.6069 80.4474 12.7015 81.0385 8.91742C81.3071 7.28035 81.0385 5.96532 80.2862 5.05286C79.4802 4.05988 77.9756 3.54997 75.9606 3.54997ZM76.6591 9.13212C76.3367 11.2791 74.6978 11.2791 73.1127 11.2791H72.1992L72.844 7.28035C72.8709 7.03881 73.0858 6.85095 73.3276 6.85095H73.7306C74.8053 6.85095 75.8263 6.85095 76.3636 7.46821C76.686 7.84393 76.7666 8.38068 76.6591 9.13212Z" fill="#009CDE"/>
<path d="M33.3235 3.54997H27.3322C26.9291 3.54997 26.5799 3.84518 26.4993 4.24774L24.0812 19.5718C24.0275 19.867 24.2693 20.1354 24.5649 20.1354H27.4128C27.8158 20.1354 28.165 19.8402 28.2456 19.4376L28.8904 15.3047C28.9442 14.9021 29.2934 14.6069 29.7233 14.6069H31.604C35.5535 14.6069 37.8103 12.7015 38.4014 8.91743C38.67 7.28035 38.4014 5.96532 37.6491 5.05286C36.8431 4.05988 35.3385 3.54997 33.3235 3.54997ZM34.022 9.13212C33.6996 11.2791 32.0607 11.2791 30.4756 11.2791H29.5621L30.2069 7.28035C30.2338 7.03882 30.4487 6.85096 30.6905 6.85096H31.0935C32.1682 6.85096 33.1892 6.85095 33.7265 7.46821C34.0489 7.84393 34.1295 8.38068 34.022 9.13212ZM51.1901 9.05161H48.3153C48.0735 9.05161 47.8586 9.23947 47.8317 9.48101L47.6974 10.2861L47.5093 9.99092C46.8913 9.10529 45.5211 8.78324 44.124 8.78324C40.9537 8.78324 38.267 11.1718 37.7297 14.5264C37.461 16.1903 37.8372 17.8006 38.8044 18.9277C39.691 19.9476 40.9269 20.3769 42.4045 20.3769C44.9569 20.3769 46.354 18.7399 46.354 18.7399L46.2197 19.545C46.1659 19.8402 46.4077 20.1086 46.7033 20.1086H49.2825C49.6855 20.1086 50.0348 19.8134 50.1154 19.4108L51.6737 9.61519C51.7274 9.34682 51.5125 9.05161 51.1901 9.05161ZM47.2137 14.6338C46.9451 16.2708 45.6286 17.3712 43.9897 17.3712C43.1568 17.3712 42.4852 17.1028 42.0553 16.5929C41.6254 16.083 41.4642 15.3852 41.5985 14.5801C41.8672 12.9699 43.1837 11.8159 44.7957 11.8159C45.6017 11.8159 46.2734 12.0842 46.7033 12.5941C47.16 13.1309 47.3481 13.8286 47.2137 14.6338Z" fill="#003087"/>
<path d="M93.8276 9.05161H90.9529C90.7111 9.05161 90.4961 9.23947 90.4693 9.48101L90.3349 10.2861L90.1469 9.99092C89.5289 9.10528 88.1587 8.78324 86.7616 8.78324C83.5913 8.78324 80.9046 11.1718 80.3673 14.5264C80.0986 16.1903 80.4747 17.8006 81.4419 18.9277C82.3286 19.9476 83.5644 20.3769 85.0421 20.3769C87.5945 20.3769 88.9916 18.7399 88.9916 18.7399L88.8572 19.545C88.8035 19.8402 89.0453 20.1086 89.3408 20.1086H91.9201C92.3231 20.1086 92.6723 19.8134 92.753 19.4108L94.3112 9.61519C94.365 9.34682 94.15 9.05161 93.8276 9.05161ZM89.8513 14.6338C89.5826 16.2708 88.2662 17.3712 86.6273 17.3712C85.7944 17.3712 85.1227 17.1028 84.6928 16.5929C84.263 16.083 84.1018 15.3852 84.2361 14.5801C84.5048 12.9699 85.8213 11.8159 87.4333 11.8159C88.2393 11.8159 88.911 12.0842 89.3408 12.5941C89.7976 13.1309 89.9857 13.8286 89.8513 14.6338Z" fill="#009CDE"/>
<path d="M66.45 9.05163H63.5753C63.3066 9.05163 63.0379 9.18582 62.8767 9.42736L58.9004 15.2779L57.2078 9.66889C57.1003 9.32001 56.7779 9.07847 56.4018 9.07847H53.5807C53.2315 9.07847 52.9897 9.42736 53.0971 9.7494L56.2674 19.0351L53.2852 23.2217C53.0434 23.5438 53.2852 24 53.6882 24H56.563C56.8316 24 57.1003 23.8658 57.2347 23.6511L66.7993 9.85675C67.0948 9.50787 66.853 9.05163 66.45 9.05163Z" fill="#003087"/>
<path d="M97.2124 3.95255L94.7675 19.545C94.7138 19.8402 94.9556 20.1086 95.2511 20.1086H97.7229C98.1259 20.1086 98.4751 19.8134 98.5557 19.4108L100.974 4.08674C101.027 3.79153 100.786 3.52316 100.49 3.52316H97.7229C97.4542 3.54999 97.2392 3.71102 97.2124 3.95255Z" fill="#009CDE"/>
<path d="M17.5381 5.81693C17.8185 4.04148 17.5381 2.8267 16.5799 1.72873C15.5048 0.513946 13.5884 0 11.1345 0H4.0065C3.51571 0 3.07167 0.373779 3.00156 0.864363L0.0101253 19.6935C-0.0599865 20.0672 0.243831 20.3943 0.617761 20.3943H5.01143L4.70761 22.3099C4.66087 22.637 4.91795 22.9173 5.24514 22.9173H8.96106C9.4051 22.9173 9.77903 22.5903 9.84914 22.1698L9.89588 21.9829L10.597 17.5442L10.6437 17.3106C10.7139 16.8668 11.0878 16.5631 11.5318 16.5631H12.0927C15.6918 16.5631 18.4963 15.1147 19.3142 10.8863C19.6648 9.11086 19.4778 7.6391 18.5664 6.61121C18.2859 6.30752 17.9354 6.02718 17.5381 5.81693Z" fill="#009CDE"/>
<path d="M17.0872 5.8829C17.3605 4.08731 17.0872 2.85876 16.1537 1.74833C15.1063 0.519774 13.2391 0 10.8483 0H3.9035C3.42534 0 2.99271 0.378017 2.9244 0.874165L0.00986502 19.9168C-0.0584444 20.2948 0.237563 20.6256 0.60188 20.6256H4.88261L5.95279 13.5378L5.93002 13.7504C5.99833 13.2542 6.40818 12.8762 6.90912 12.8762H8.9584C12.9659 12.8762 16.1081 11.1988 17.0189 6.30817L17.0872 5.8829Z" fill="#012169"/>
<path d="M7.13682 5.90652C7.18236 5.59938 7.36452 5.36312 7.61499 5.22137C7.72883 5.17411 7.86545 5.12686 7.9793 5.12686H13.4441C14.0816 5.12686 14.6964 5.17411 15.2429 5.26862C15.4023 5.29224 15.5617 5.31587 15.6983 5.36312C15.8577 5.38675 15.9943 5.434 16.1309 5.48125L16.3358 5.55213C16.6091 5.64664 16.8595 5.76477 17.0872 5.8829C17.3605 4.08731 17.0872 2.85876 16.1537 1.74833C15.1063 0.519774 13.2391 0 10.8483 0H3.9035C3.42534 0 2.99271 0.378017 2.9244 0.874165L0.00986502 19.9168C-0.0584444 20.2948 0.237563 20.6256 0.60188 20.6256H4.88261L5.95279 13.5378L7.13682 5.90652Z" fill="#003087"/>
</svg>
