<?xml version="1.0" standalone="no"?><!DOCTYPE svg PUBLIC "-//W3C//DTD SVG 1.1//EN" "http://www.w3.org/Graphics/SVG/1.1/DTD/svg11.dtd"><svg t="1779157014281" class="icon" viewBox="0 0 3413 1024" version="1.1" xmlns="http://www.w3.org/2000/svg" p-id="5080" xmlns:xlink="http://www.w3.org/1999/xlink" width="333.30078125" height="100"><path d="M192 512c0 235.648 191.018667 426.666667 426.666667 426.666667s426.666667-191.018667 426.666666-426.666667S854.314667 85.333333 618.666667 85.333333 192 276.352 192 512z" fill="#676BE5" p-id="5081"></path><path d="M580.202667 421.802667c0-19.968 16.64-27.648 43.306666-27.648 44.330667 0.981333 87.808 12.224 127.018667 32.853333V306.773333a336.768 336.768 0 0 0-126.912-23.36c-103.616 0-172.586667 54.058667-172.586667 144.469334 0 141.333333 194.069333 118.4 194.069334 179.370666 0 23.637333-20.48 31.253333-48.96 31.253334-49.066667-2.752-96.853333-16.682667-139.712-40.746667v115.029333a354.56 354.56 0 0 0 139.648 28.949334c106.154667 0 179.285333-45.717333 179.285333-137.493334 0-152.384-195.114667-125.034667-195.114667-182.506666" fill="#FFFFFF" p-id="5082"></path><path d="M3221.141333 530.261333c0-147.114667-71.125333-263.210667-207.573333-263.210666-136.469333 0-219.562667 116.096-219.562667 262.250666 0 172.992 97.962667 252.864 237.653334 252.864 68.544 0 119.957333-15.530667 159.104-37.184v-108.010666c-39.146667 19.733333-84.074667 31.701333-141.013334 31.701333-55.914667 0-105.066667-19.733333-111.530666-86.997333H3219.2c0.64-7.424 1.941333-37.504 1.941333-51.413334m-284.224-54.314666c0-64.661333 39.765333-91.84 75.669334-91.84 35.242667 0 72.746667 27.178667 72.746666 91.84h-148.416z m-365.056-208.896c-56.277333 0-92.48 26.517333-112.533333 44.949333l-7.445333-35.562667h-126.421334V938.666667l143.573334-30.4 0.32-162.325334c20.693333 15.210667 51.413333 36.224 101.525333 36.224 102.826667 0 196.608-75.029333 196.608-257.386666 0.32-166.848-94.741333-257.706667-195.626667-257.706667m-34.282666 396.096c-33.642667 0-53.674667-12.288-67.584-27.157333l-0.96-213.418667c14.869333-16.490667 35.562667-28.458667 68.544-28.458667 52.373333 0 88.597333 58.858667 88.597333 133.866667 0.32 77.290667-35.242667 135.168-88.597333 135.168M2271.765333 85.333333v117.056l-144.213333 30.72V116.053333L2271.786667 85.333333m-143.872 191.424h144.213333v495.381334h-144.213333v-495.36z m-154.581334 42.368c33.642667-61.76 100.565333-49.152 119.978667-42.368v131.925334c-18.432-5.824-75.669333-14.549333-109.632 30.08v333.376H1840.426667v-495.36h124.16l8.746666 42.346666m-287.786666-42.368h108.949333v122.24H1685.546667v204.352c0 84.714667 90.56 58.197333 108.970666 50.773334v109.290666c-19.072 10.346667-53.674667 19.072-100.885333 19.072-85.034667 0-149.056-54.976-149.056-140.010666l0.64-460.458667 140.010667-29.738667 0.32 124.48zM1296.853333 422.613333c0 64.661333 219.562667 33.962667 219.562667 205.013334 0 103.466667-82.133333 154.56-201.450667 154.56-49.472 0-103.466667-9.706667-156.821333-32.661334V620.16c48.170667 26.197333 109.610667 45.909333 157.141333 45.909333 32.021333 0 54.976-8.725333 54.976-35.242666 0-68.544-218.261333-42.666667-218.261333-201.770667 0-101.546667 77.610667-162.325333 194.005333-162.325333 47.530667 0 95.082667 7.445333 142.613334 26.197333v135.168c-43.669333-23.616-99.285333-36.864-142.933334-36.864-30.08 0.32-48.832 9.045333-48.832 31.36" fill="#000000" p-id="5083"></path></svg>