<svg width="160" height="100" viewBox="0 0 160 100" fill="none" xmlns="http://www.w3.org/2000/svg">
<path d="M0 8C0 3.58172 3.58172 0 8 0H152C156.418 0 160 3.58172 160 8V92C160 96.4183 156.418 100 152 100H8C3.58172 100 0 96.4183 0 92V8Z" fill="white"/>
<g clip-path="url(#clip0_25262_18234)">
<path d="M49.1173 19.5817C46.2677 19.9405 43.4181 22.2992 42.4853 25.0163C41.8637 26.7084 30.7235 74.6965 30.6722 75.5684C30.5684 78.0805 32.0191 79.9263 34.4023 80.3879C35.2834 80.5928 63.573 80.5928 64.5058 80.3879C67.1999 79.8749 69.7387 77.7729 70.6715 75.2095C71.0342 74.2354 82.5365 25.3243 82.5365 24.5038C82.6921 22.1964 81.2927 20.2994 79.0652 19.633C78.5469 19.5309 50.3092 19.428 49.1172 19.5816L49.1173 19.5817Z" fill="#E60012"/>
<path d="M75.4897 19.5817C72.64 19.9405 69.7905 22.2992 68.8581 25.0163C68.2878 26.7084 57.0965 74.6965 57.0965 75.5684C56.9926 78.0805 58.4434 79.9263 60.8271 80.3879C61.7076 80.5928 89.9972 80.5928 90.9301 80.3879C93.6245 79.8749 96.1633 77.7729 97.0957 75.2095C97.4585 74.2354 108.961 25.3243 108.961 24.5038C109.116 22.1964 107.717 20.2994 105.49 19.633C104.919 19.5309 76.6816 19.428 75.4897 19.5816V19.5817Z" fill="#00508E"/>
<path d="M103.002 19.5817C100.153 19.9405 97.3026 22.2992 96.3702 25.0163C95.8005 26.7084 84.6087 74.6965 84.6087 75.5684C84.5053 78.0805 85.9562 79.9263 88.3393 80.3879C89.2203 80.5928 110.256 80.5928 111.189 80.3879C113.883 79.8749 116.422 77.7729 117.354 75.2095C117.717 74.2354 129.22 25.3243 129.22 24.5038C129.375 22.1964 127.976 20.2994 125.748 19.633C125.23 19.4795 101.603 19.3767 100.412 19.5309H103.002V19.5817Z" fill="#00908C"/>
<path d="M48.2366 35.1678C48.2366 35.2192 48.1845 35.5268 48.0813 35.8345C46.8895 39.8334 45.6977 45.2168 45.8533 45.8832C46.2678 47.8829 49.2213 47.729 50.2574 45.6269C50.5682 45.0632 52.7962 35.6808 52.7962 35.0145C52.7962 34.9631 56.3194 35.0145 56.3194 35.0652C56.3194 35.0652 56.3194 35.2192 56.2674 35.3733C56.2156 35.5268 55.6459 37.6802 55.0243 40.2437C53.6248 45.6783 53.4697 46.242 52.7444 47.3187C50.3608 50.8054 42.3815 50.7028 41.7599 47.1652C41.6044 46.396 43.3145 37.5266 44.0918 35.1165C44.0918 34.9631 48.2366 35.0652 48.2366 35.1679V35.1678ZM101.189 35.1678C103.573 35.6808 104.298 37.5773 103.21 40.3977C102.122 43.2174 99.7904 44.4476 95.6971 44.4476C94.4534 44.4476 94.5571 44.2427 93.7799 48.0878C93.6247 48.8056 93.4692 49.4721 93.4692 49.5747C93.4171 49.831 89.7384 49.831 89.7903 49.5747C92.8994 36.3985 93.1583 35.2706 93.1583 35.1678L93.2102 35.0145H96.9403C99.8937 35.0652 100.723 35.0652 101.189 35.1679V35.1678ZM69.2209 40.2437C69.7388 40.3463 70.1014 40.7567 70.1014 41.1154C70.1014 42.397 67.4589 43.2688 66.4745 42.2944C65.5421 41.3204 67.5109 39.8334 69.2209 40.2436V40.2437ZM60.05 41.2176C60.05 41.3204 59.9981 41.5257 59.9981 41.6791L59.9463 41.8845L60.5678 41.5765C62.226 40.7566 63.832 40.91 64.3504 41.9354C64.6611 42.5511 64.6092 42.9099 63.7805 46.7036C63.625 47.3701 63.4179 48.2933 63.366 48.7542C63.1585 49.7801 63.3141 49.7287 61.4489 49.7287C59.8425 49.7287 59.8425 49.7287 59.8944 49.5747C59.8944 49.4721 60.1018 48.6521 60.309 47.6776C61.138 44.0379 61.19 43.5249 60.4645 43.5249C60.05 43.5249 59.4797 43.7812 59.4284 43.9351C59.3247 44.2941 58.3917 48.7542 58.3399 49.1645L58.2365 49.6261L56.6301 49.7287C54.6616 49.7801 54.8167 49.9336 55.2312 48.1904C55.8011 45.9345 56.1122 44.3455 56.3194 42.9098C56.5783 41.3717 56.4231 41.5257 57.8738 41.3204C58.5474 41.2176 59.2208 41.1154 59.4284 41.0641C59.9463 40.91 60.05 40.9613 60.05 41.2176ZM84.6609 41.1668C84.6609 41.2689 84.609 41.4743 84.609 41.6279L84.557 41.8845L85.1791 41.5765C88.3914 39.9361 89.6347 41.2689 88.7023 45.4733C88.4952 46.396 88.2358 47.729 88.0807 48.3444C87.9769 49.011 87.8213 49.5747 87.7698 49.626C87.5623 49.831 84.5057 49.7802 84.557 49.626C84.557 49.5234 84.7645 48.7034 84.9716 47.7803C85.8527 44.0379 85.8527 43.5763 85.0754 43.5763C84.4538 43.5763 84.143 43.7812 84.0393 44.2427C83.8835 44.8065 83.1063 48.498 83.003 49.1645L82.8993 49.7287L81.2929 49.7801C79.3242 49.831 79.4794 50.0363 79.9458 48.1391C80.4643 46.0884 80.8269 44.1914 81.0858 42.8072C81.2929 41.4743 81.1377 41.6279 82.4328 41.423C83.003 41.3204 83.7284 41.2176 83.9874 41.1668C84.5057 40.91 84.6609 40.9614 84.6609 41.1668ZM116.111 41.1154C116.318 44.2427 116.37 45.1653 116.37 45.2168C116.37 45.2682 116.837 44.4476 117.355 43.4223C118.391 41.3717 118.184 41.5765 119.324 41.423C119.634 41.3717 120.256 41.2689 120.722 41.1668C121.862 40.9614 121.862 40.8587 120.567 43.1148C118.805 46.1399 116.37 50.3952 115.489 51.9334C112.847 56.7011 112.847 56.7011 110.619 56.7524L109.272 56.8038L109.375 56.4449C109.427 56.24 109.583 55.8298 109.635 55.5223L109.79 54.958H110.205C110.671 54.958 110.774 54.8552 111.189 54.1375C111.345 53.8813 111.603 53.4711 111.707 53.2149C111.862 52.9586 112.381 52.1382 112.795 51.3178L113.624 49.8823L113.417 47.9857C113.158 45.7809 112.847 43.1661 112.692 42.397C112.588 41.6792 112.588 41.6792 113.521 41.5766C113.935 41.5257 114.609 41.3717 114.971 41.3204C115.956 41.0128 116.059 41.0128 116.111 41.1154ZM77.0444 41.1668C81.034 41.8845 79.6351 48.7542 75.2828 49.7287C72.3294 50.3952 70.309 49.2671 70.309 47.0111C70.3604 43.0634 73.3137 40.5 77.0443 41.1668H77.0444ZM106.888 41.3717C107.096 41.4743 107.407 41.6792 107.562 41.8332C107.821 42.0894 107.821 42.0894 107.821 41.9354C107.873 41.7305 107.821 41.7305 109.894 41.423C111.552 41.1668 111.5 41.1668 111.396 41.6279C110.723 44.4989 110.153 47.0111 109.894 48.2418C109.531 50.0877 109.79 49.8823 107.77 49.831H106.059V49.626C106.059 49.4211 105.956 49.3184 105.852 49.4721C105.282 50.3952 102.484 50.0363 101.707 48.9083C99.7904 46.0372 103.883 39.9874 106.888 41.3717H106.888ZM69.6869 42.8586C69.6869 42.8586 69.6869 43.1148 69.635 43.3201C69.2209 44.9606 68.4956 48.2933 68.3398 48.9083L68.1843 49.6774L66.4745 49.7287C64.4542 49.7801 64.5574 49.8823 64.9719 48.6521C65.3346 47.4727 65.6974 46.0372 65.9049 44.4989C66.1118 43.1661 65.9049 43.3709 67.4075 43.1661C68.0809 43.0633 68.8064 42.9612 68.9615 42.9099C69.376 42.8072 69.635 42.8072 69.6869 42.8585V42.8586ZM78.7541 53.4711C78.7541 53.5225 78.6508 53.7279 78.4952 53.984C78.3913 54.2402 78.2363 54.4456 78.2363 54.4456C81.2929 54.4963 81.3967 54.4964 81.3447 54.6505L80.775 56.4963H76.319L76.0602 56.7011C75.4899 57.214 72.4851 57.8804 72.4851 57.4701L73.055 55.6244H73.4694C74.1948 55.6244 74.3499 55.4709 74.972 54.3943L75.4899 53.4198C78.1844 53.3689 78.754 53.4198 78.754 53.4712L78.7541 53.4711ZM85.5419 53.4711C85.5419 53.5225 85.4899 53.7786 85.3861 54.0867C85.2824 54.3429 85.2311 54.5992 85.2311 54.6505C85.2311 54.6505 85.4899 54.5476 85.8007 54.2917C86.9407 53.5225 87.9249 53.3689 90.8264 53.3689C91.9665 53.3689 92.9507 53.3689 93.0026 53.4198C93.0545 53.5225 91.3449 59.0597 91.0854 59.5721C90.7227 60.2391 90.36 60.5979 89.7904 60.8541L89.272 61.0591L86.3191 61.1105L83.3656 61.1617L82.8474 62.9048C81.8112 66.2374 81.8112 65.9813 83.3138 65.8273C84.5057 65.7245 84.4538 65.6224 84.0911 66.8525L83.7803 67.8779H82.2777C79.0135 67.9293 78.599 67.7244 78.9097 66.3911C79.0653 65.7246 82.7956 53.5225 82.8474 53.4198C82.8993 53.3689 85.5419 53.3689 85.5419 53.4712V53.4711ZM99.1683 53.4711C99.1683 53.5225 99.1164 53.6764 99.065 53.8812C98.9094 54.3942 98.9094 54.3942 99.5829 54.0354C100.464 53.5738 102.536 53.4198 106.785 53.4198H108.132V54.0354C108.132 54.7532 108.184 54.8043 108.806 54.9067L109.272 54.958L109.013 55.8811L108.754 56.8037H107.821C105.438 56.8551 105.075 56.5989 105.023 55.2147V54.5478L104.868 55.0093L104.712 55.5223H104.194C103.935 55.5223 103.676 55.5223 103.676 55.5737C103.676 55.5737 101.137 63.9301 100.775 65.1094C100.723 65.2123 100.775 65.2636 101.086 65.2636C101.552 65.2636 101.552 65.2636 101.396 65.6732C101.241 66.1348 101.241 66.1348 101.759 66.1348C102.122 66.1348 102.329 66.0834 102.588 65.93C102.951 65.7246 102.951 65.776 104.609 63.469L105.282 62.4946H103.883C102.174 62.4946 102.329 62.5973 102.64 61.572L102.899 60.7515H106.319C106.63 59.6748 106.733 59.3673 106.733 59.316C106.733 59.2645 106.007 59.2646 105.075 59.2646H103.417L103.935 57.4188H108.598C111.137 57.4188 113.262 57.4188 113.262 57.4703C113.262 57.5215 113.158 57.9318 113.002 58.3934L112.743 59.2647L111.189 59.316L109.635 59.3673C109.375 60.1364 109.272 60.4952 109.22 60.5979L109.168 60.8028H110.671C112.433 60.8028 112.329 60.7002 111.966 61.7255L111.707 62.5459H108.287L107.77 63.161H109.117L109.324 64.3917C109.531 65.776 109.531 65.776 110.205 65.776C110.723 65.776 110.723 65.6732 110.36 66.9038L110.049 67.9292H109.065C107.355 67.9292 107.044 67.6731 106.733 65.9299L106.578 64.8019L105.956 65.6224C104.246 67.9292 104.143 67.9805 101.966 67.9805C100.567 67.9805 100.567 67.9805 100.775 67.5704C100.827 67.3655 100.827 67.3655 100.412 67.3655C99.9974 67.3655 99.9974 67.3655 99.8937 67.6731L99.8418 67.9805H96.9403L96.9921 67.8265C97.1479 67.3142 97.4067 67.3655 94.2463 67.3655C91.5 67.3655 91.3449 67.3655 91.3967 67.2114L91.6557 66.2888C91.9665 65.3657 91.9146 65.3657 92.2255 65.3657C92.4847 65.3657 92.4847 65.3657 92.588 65.0068C95.0236 56.9577 95.8008 54.3942 95.9042 54.0354L96.1117 53.3689H97.5624C98.4948 53.3689 99.1683 53.4198 99.1683 53.4711ZM80.775 57.8804L80.2048 59.6748H77.0964C76.7855 60.7002 76.6818 61.0078 76.6298 61.1104C76.5779 61.2645 76.6817 61.2645 78.1844 61.2645C79.0653 61.2645 79.7907 61.3159 79.7907 61.3159C79.7907 61.3666 79.7389 61.4692 79.6868 61.6232C79.6351 61.7255 79.5313 62.1358 79.4281 62.5459L79.2205 63.2123H76.0081L75.6454 64.443C75.1272 66.1861 75.179 66.2374 77.148 65.9813C77.9772 65.8786 77.9253 65.776 77.5625 67.0067L77.2518 68.0319H75.0752C71.6558 68.0319 71.604 67.9292 72.5364 65.0068C72.7959 64.0842 73.0549 63.315 73.0549 63.315C73.0549 63.315 72.6921 63.2636 72.1737 63.2636C71.7078 63.2636 71.2933 63.2636 71.2933 63.2123C71.6558 61.9309 71.811 61.5205 71.811 61.4179C71.8629 61.3158 71.9667 61.2645 72.744 61.2645H73.6245L74.039 59.6748H73.2104C72.5883 59.6748 72.3813 59.6748 72.3813 59.5721C72.3813 59.4701 72.8477 57.9831 72.899 57.829C73.0029 57.727 80.8268 57.7777 80.7749 57.8804H80.775ZM90.8265 61.572C90.8265 61.6746 90.7227 61.9822 90.6712 62.2385C90.36 63.674 89.946 63.9816 88.2877 64.0842C87.718 64.1356 87.1997 64.1868 87.1997 64.1868C87.0959 64.3404 87.0959 65.5711 87.1997 65.776L87.3553 65.9813L88.3914 65.9299C88.9613 65.8786 89.4276 65.8786 89.4276 65.8786C89.4276 65.9813 88.8578 67.7757 88.806 67.8265C88.7023 67.9293 85.5419 67.8779 85.1272 67.7244C84.5057 67.519 84.5057 67.5703 84.557 64.3403L84.609 61.5206H87.2515V62.5973H87.77C88.3396 62.5973 88.3914 62.5459 88.6504 61.8281L88.806 61.4179H89.8423C90.7746 61.4693 90.8784 61.4693 90.8265 61.572ZM95.697 39.6286L95.1268 42.0895H95.9042C99.8937 42.1921 101.552 37.6288 97.6657 37.3212C97.044 37.2698 96.4742 37.2185 96.4224 37.2185C96.2669 37.2185 96.2669 37.3727 95.6971 39.6286H95.697ZM75.0752 43.1148C74.091 43.5249 73.1585 47.2165 73.9359 47.7803C74.5055 48.2418 75.3348 47.4727 75.7493 46.1912C76.4228 43.8325 76.2153 42.7045 75.0752 43.1148ZM105.956 43.3709C104.919 43.8839 104.143 47.524 104.919 47.9342C105.956 48.498 107.303 46.5501 107.303 44.4476C107.303 43.4736 106.733 43.0121 105.956 43.3709ZM85.0235 55.5736L84.7645 56.4963C84.609 56.9578 84.5057 57.368 84.4538 57.4188C84.4538 57.4703 84.7127 57.368 85.0754 57.1626C86.1115 56.6502 86.4225 56.5476 87.9249 56.4963L89.2206 56.4449C89.4276 55.8298 89.4796 55.5736 89.4796 55.5223C89.5314 55.4709 85.0754 55.4709 85.0235 55.5737V55.5736ZM84.1431 58.5469L83.9354 59.3673L88.3914 59.3158L88.6504 58.4955C85.1272 58.4955 84.1431 58.4955 84.1431 58.5469ZM98.2358 56.7011C98.0285 57.368 97.8732 57.8804 97.9251 57.8804L98.5467 57.6756C98.8575 57.5727 99.4277 57.4188 99.7385 57.368C100.049 57.3167 100.308 57.2652 100.36 57.2652C100.36 57.2652 100.879 55.6757 100.879 55.6244C100.879 55.6244 100.36 55.5736 99.7385 55.5736H98.5984L98.2357 56.7012L98.2358 56.7011ZM97.4068 59.316C97.4068 59.3673 97.1997 59.8802 97.044 60.4952C96.837 61.1104 96.6814 61.6746 96.6814 61.6746C96.6814 61.7255 96.9403 61.6232 97.303 61.4692C97.6657 61.3158 98.184 61.1617 98.4948 61.1105C99.1683 61.0077 99.2201 60.9569 99.2722 60.7002C99.324 60.5979 99.4277 60.1878 99.5309 59.8802L99.7385 59.2647H98.5984C97.9768 59.2647 97.4065 59.2647 97.4065 59.316H97.4068ZM95.5933 65.2121L97.8732 65.2636C98.3396 63.7253 98.4948 63.2123 98.4948 63.161L96.215 63.0589L95.5933 65.2121Z" fill="white"/>
</g>
<path fill-rule="evenodd" clip-rule="evenodd" d="M152 2H8C4.68629 2 2 4.68629 2 8V92C2 95.3137 4.68629 98 8 98H152C155.314 98 158 95.3137 158 92V8C158 4.68629 155.314 2 152 2ZM8 0C3.58172 0 0 3.58172 0 8V92C0 96.4183 3.58172 100 8 100H152C156.418 100 160 96.4183 160 92V8C160 3.58172 156.418 0 152 0H8Z" fill="#DDDDD8"/>
<defs>
<clipPath id="clip0_25262_18234">
<rect width="100" height="62" fill="white" transform="translate(30 19)"/>
</clipPath>
</defs>
</svg>
