<svg width="160" height="100" viewBox="0 0 160 100" fill="none" xmlns="http://www.w3.org/2000/svg">
<g clip-path="url(#clip0_25262_18301)">
<path d="M0 8C0 3.58172 3.58172 0 8 0H152C156.418 0 160 3.58172 160 8V92C160 96.4183 156.418 100 152 100H8C3.58172 100 0 96.4183 0 92V8Z" fill="white"/>
<path d="M106.498 32.493C103.734 31.4867 100.812 30.9813 97.8706 31.0005C88.3506 31.0005 81.6321 35.8002 81.5825 42.6774C81.523 47.7349 86.3623 50.581 90.0166 52.2767C93.7701 54.0121 95.0245 55.103 95.0146 56.6649C94.9898 59.03 92.0148 60.101 89.253 60.101C85.455 60.101 83.3725 59.5704 80.1743 58.2416L78.9893 57.6912L77.6456 65.6146C79.9562 66.5815 84.1212 67.4096 88.43 67.474C98.5499 67.474 105.164 62.7091 105.244 55.3807C105.323 51.3495 102.715 48.2902 97.2062 45.7714C93.8643 44.1352 91.7818 43.0394 91.7818 41.3783C91.7818 39.9107 93.5618 38.3438 97.2806 38.3438C99.7537 38.2845 102.212 38.7457 104.495 39.6974L105.387 40.0991L106.731 32.4434L106.498 32.493ZM131.205 31.6501H123.768C121.452 31.6501 119.722 32.2798 118.706 34.5804L104.401 66.9782H114.521L116.544 61.6728L128.89 61.6827C129.192 62.9223 130.08 66.9782 130.08 66.9782H139L131.205 31.6501ZM67.8975 31.3526H77.5315L71.5072 66.7005H61.8682L67.8975 31.3427V31.3526ZM43.4083 50.8339L44.4099 55.7426L53.8357 31.6501H64.0449L48.8674 66.9286H38.683L30.353 37.0497C30.2187 36.5573 29.8988 36.1361 29.4605 35.8746C26.4645 34.3183 23.2866 33.1408 20 32.369L20.124 31.6253H35.6485C37.7508 31.7046 39.4466 32.369 40.0267 34.6201L43.4083 50.8487V50.8339ZM119.31 54.4386L123.153 44.5517C123.104 44.6508 123.947 42.5088 124.432 41.18L125.092 44.2294L127.318 54.4286H119.31V54.4386Z" fill="#1434CB"/>
<path fill-rule="evenodd" clip-rule="evenodd" d="M152 2H8C4.68629 2 2 4.68629 2 8V92C2 95.3137 4.68629 98 8 98H152C155.314 98 158 95.3137 158 92V8C158 4.68629 155.314 2 152 2ZM8 0C3.58172 0 0 3.58172 0 8V92C0 96.4183 3.58172 100 8 100H152C156.418 100 160 96.4183 160 92V8C160 3.58172 156.418 0 152 0H8Z" fill="#DDDDD8"/>
</g>
<defs>
<clipPath id="clip0_25262_18301">
<rect width="160" height="100" fill="white"/>
</clipPath>
</defs>
</svg>
