<svg width="150" height="40" viewBox="0 0 150 40" fill="none" xmlns="http://www.w3.org/2000/svg">
<path d="M132.547 27.7999C133.491 27.7999 134.339 27.5759 135.091 27.1279C135.859 26.6799 136.459 26.0639 136.891 25.2799C137.339 24.4799 137.563 23.5999 137.563 22.6399C137.563 21.6639 137.347 20.7839 136.915 19.9999C136.483 19.2159 135.883 18.5999 135.115 18.1519C134.363 17.7039 133.507 17.4799 132.547 17.4799C131.603 17.4799 130.747 17.7039 129.979 18.1519C129.227 18.5999 128.627 19.2159 128.179 19.9999C127.747 20.7839 127.531 21.6639 127.531 22.6399C127.531 23.5999 127.747 24.4799 128.179 25.2799C128.627 26.0639 129.227 26.6799 129.979 27.1279C130.747 27.5759 131.603 27.7999 132.547 27.7999ZM132.547 29.2879C131.347 29.2879 130.235 28.9919 129.211 28.3999C128.203 27.7919 127.395 26.9839 126.787 25.9759C126.195 24.9519 125.899 23.8399 125.899 22.6399C125.899 21.4239 126.195 20.3119 126.787 19.3039C127.395 18.2799 128.203 17.4719 129.211 16.8799C130.235 16.2879 131.347 15.9919 132.547 15.9919C133.747 15.9919 134.859 16.2879 135.883 16.8799C136.907 17.4719 137.715 18.2799 138.307 19.3039C138.899 20.3119 139.195 21.4239 139.195 22.6399C139.195 23.8399 138.891 24.9519 138.283 25.9759C137.691 26.9839 136.883 27.7919 135.859 28.3999C134.851 28.9919 133.747 29.2879 132.547 29.2879Z" fill="black"/>
<path d="M123.301 13.1839C123.301 13.3759 123.245 13.5279 123.133 13.6399C123.021 13.7519 122.869 13.8079 122.677 13.8079H122.341C122.133 13.8079 121.973 13.7519 121.861 13.6399C121.749 13.5279 121.693 13.3759 121.693 13.1839V11.4319C121.693 11.2239 121.749 11.0639 121.861 10.9519C121.973 10.8399 122.133 10.7839 122.341 10.7839H122.677C122.869 10.7839 123.021 10.8399 123.133 10.9519C123.245 11.0639 123.301 11.2239 123.301 11.4319V13.1839ZM123.301 28.3759C123.301 28.5839 123.245 28.7439 123.133 28.8559C123.021 28.9679 122.869 29.0239 122.677 29.0239H122.341C122.133 29.0239 121.973 28.9679 121.861 28.8559C121.749 28.7439 121.693 28.5839 121.693 28.3759V16.9039C121.693 16.6959 121.749 16.5359 121.861 16.4239C121.973 16.3119 122.133 16.2559 122.341 16.2559H122.677C122.869 16.2559 123.021 16.3119 123.133 16.4239C123.245 16.5359 123.301 16.6959 123.301 16.9039V28.3759Z" fill="black"/>
<path d="M112.609 17.4559C111.649 17.4559 110.785 17.6799 110.017 18.1279C109.265 18.5759 108.673 19.1999 108.241 19.9999C107.825 20.7839 107.617 21.6719 107.617 22.6639C107.617 23.6239 107.825 24.5039 108.241 25.3039C108.673 26.0879 109.273 26.7119 110.041 27.1759C110.809 27.6239 111.665 27.8479 112.609 27.8479C113.489 27.8479 114.289 27.6239 115.009 27.1759C115.745 26.7119 116.321 26.0879 116.737 25.3039C117.169 24.5039 117.385 23.6239 117.385 22.6639C117.385 21.6719 117.169 20.7839 116.737 19.9999C116.321 19.1999 115.745 18.5759 115.009 18.1279C114.289 17.6799 113.489 17.4559 112.609 17.4559ZM112.705 15.9919C113.873 15.9919 114.945 16.2959 115.921 16.9039C116.897 17.4959 117.665 18.3039 118.225 19.3279C118.801 20.3359 119.089 21.4479 119.089 22.6639C119.089 23.8479 118.801 24.9519 118.225 25.9759C117.665 26.9839 116.897 27.7919 115.921 28.3999C114.945 28.9919 113.873 29.2879 112.705 29.2879C111.521 29.2879 110.465 28.9759 109.537 28.3519C108.609 27.7119 107.889 26.8799 107.377 25.8559C106.865 24.8319 106.609 23.7679 106.609 22.6639C106.609 21.5279 106.865 20.4479 107.377 19.4239C107.889 18.3999 108.609 17.5759 109.537 16.9519C110.465 16.3119 111.521 15.9919 112.705 15.9919ZM107.713 33.8479C107.713 34.0559 107.657 34.2159 107.545 34.3279C107.433 34.4399 107.281 34.4959 107.089 34.4959H106.753C106.545 34.4959 106.385 34.4399 106.273 34.3279C106.161 34.2159 106.105 34.0559 106.105 33.8479V16.9039C106.105 16.6959 106.161 16.5359 106.273 16.4239C106.385 16.3119 106.545 16.2559 106.753 16.2559H107.089C107.281 16.2559 107.433 16.3119 107.545 16.4239C107.657 16.5359 107.713 16.6959 107.713 16.9039V20.8879L107.353 22.6159L107.713 24.4159V33.8479Z" fill="black"/>
<path d="M96.9456 27.7999C97.8896 27.7999 98.7376 27.5759 99.4896 27.1279C100.258 26.6799 100.858 26.0639 101.29 25.2799C101.738 24.4799 101.962 23.5999 101.962 22.6399C101.962 21.6639 101.746 20.7839 101.314 19.9999C100.882 19.2159 100.282 18.5999 99.5136 18.1519C98.7616 17.7039 97.9056 17.4799 96.9456 17.4799C96.0016 17.4799 95.1456 17.7039 94.3776 18.1519C93.6256 18.5999 93.0256 19.2159 92.5776 19.9999C92.1456 20.7839 91.9296 21.6639 91.9296 22.6399C91.9296 23.5999 92.1456 24.4799 92.5776 25.2799C93.0256 26.0639 93.6256 26.6799 94.3776 27.1279C95.1456 27.5759 96.0016 27.7999 96.9456 27.7999ZM96.9456 29.2879C95.7456 29.2879 94.6336 28.9919 93.6096 28.3999C92.6016 27.7919 91.7936 26.9839 91.1856 25.9759C90.5936 24.9519 90.2976 23.8399 90.2976 22.6399C90.2976 21.4239 90.5936 20.3119 91.1856 19.3039C91.7936 18.2799 92.6016 17.4719 93.6096 16.8799C94.6336 16.2879 95.7456 15.9919 96.9456 15.9919C98.1456 15.9919 99.2576 16.2879 100.282 16.8799C101.306 17.4719 102.114 18.2799 102.706 19.3039C103.298 20.3119 103.594 21.4239 103.594 22.6399C103.594 23.8399 103.29 24.9519 102.682 25.9759C102.09 26.9839 101.282 27.7919 100.258 28.3999C99.2496 28.9919 98.1456 29.2879 96.9456 29.2879Z" fill="black"/>
<path d="M76.8552 23.4319C76.8552 22.1519 77.1032 20.9439 77.5992 19.8079C78.1112 18.6559 78.8232 17.7359 79.7352 17.0479C80.6632 16.3439 81.7272 15.9919 82.9272 15.9919C83.7432 15.9919 84.5192 16.2399 85.2552 16.7359C86.0072 17.2159 86.6152 17.8799 87.0792 18.7279C87.5432 19.5599 87.7752 20.4879 87.7752 21.5119V28.3759C87.7752 28.5839 87.7192 28.7439 87.6072 28.8559C87.4952 28.9679 87.3432 29.0239 87.1512 29.0239H86.7912C86.5992 29.0239 86.4472 28.9679 86.3352 28.8559C86.2232 28.7439 86.1672 28.5839 86.1672 28.3759V21.5119C86.1672 20.7599 85.9912 20.0799 85.6392 19.4719C85.3032 18.8639 84.8632 18.3919 84.3192 18.0559C83.7752 17.7039 83.1992 17.5279 82.5912 17.5279C81.7592 17.5279 81.0312 17.7439 80.4072 18.1759C79.7832 18.5919 79.3032 19.1839 78.9672 19.9519C78.6312 20.7199 78.4632 21.5919 78.4632 22.5679L76.8552 23.4319ZM78.4632 28.3759C78.4632 28.5839 78.4072 28.7439 78.2952 28.8559C78.1832 28.9679 78.0312 29.0239 77.8392 29.0239H77.5032C77.2952 29.0239 77.1352 28.9679 77.0232 28.8559C76.9112 28.7439 76.8552 28.5839 76.8552 28.3759V11.4319C76.8552 11.2239 76.9112 11.0639 77.0232 10.9519C77.1352 10.8399 77.2952 10.7839 77.5032 10.7839H77.8392C78.0312 10.7839 78.1832 10.8399 78.2952 10.9519C78.4072 11.0639 78.4632 11.2239 78.4632 11.4319V28.3759Z" fill="black"/>
<path d="M61.917 25.1119C61.821 24.9199 61.813 24.7599 61.893 24.6319C61.989 24.4879 62.141 24.3919 62.349 24.3439L62.757 24.2719C62.933 24.2399 63.077 24.2639 63.189 24.3439C63.301 24.4239 63.413 24.5519 63.525 24.7279C63.957 25.7999 64.701 26.6159 65.757 27.1759C66.813 27.7199 67.925 27.9039 69.093 27.7279C70.261 27.5359 71.221 26.9759 71.973 26.0479C72.469 25.4239 72.725 24.7359 72.741 23.9839C72.757 23.2319 72.541 22.5599 72.093 21.9679C71.645 21.3759 71.005 20.9919 70.173 20.8159C69.757 20.7199 68.933 20.5839 67.701 20.4079C67.445 20.3599 66.949 20.2799 66.213 20.1679C65.029 19.9599 64.101 19.4239 63.429 18.5599C62.773 17.6959 62.453 16.7199 62.469 15.6319C62.501 14.5279 62.885 13.5759 63.621 12.7759C64.517 11.7679 65.597 11.1759 66.861 10.9999C68.141 10.8079 69.365 10.9759 70.533 11.5039C71.717 12.0319 72.629 12.7919 73.269 13.7839C73.397 13.9599 73.429 14.1279 73.365 14.2879C73.317 14.4319 73.205 14.5439 73.029 14.6239L72.693 14.7919C72.517 14.8719 72.357 14.8879 72.213 14.8399C72.085 14.7919 71.949 14.6799 71.805 14.5039C71.293 13.7839 70.621 13.2399 69.789 12.8719C68.957 12.4879 68.093 12.3679 67.197 12.5119C66.317 12.6399 65.541 13.0799 64.869 13.8319C64.373 14.3599 64.109 14.9839 64.077 15.7039C64.045 16.4079 64.253 17.0479 64.701 17.6239C65.149 18.1839 65.781 18.5439 66.597 18.7039C66.885 18.7519 67.133 18.7919 67.341 18.8239C67.565 18.8559 67.829 18.8959 68.133 18.9439C69.093 19.0559 69.941 19.1999 70.677 19.3759C71.893 19.6639 72.821 20.2479 73.461 21.1279C74.101 21.9919 74.405 22.9679 74.373 24.0559C74.357 25.1279 74.013 26.1119 73.341 27.0079C72.381 28.2239 71.093 28.9439 69.477 29.1679C67.877 29.4079 66.349 29.1519 64.893 28.3999C63.437 27.6479 62.445 26.5519 61.917 25.1119Z" fill="black"/>
<path d="M59.3738 27.44C59.5658 27.472 59.7098 27.544 59.8058 27.656C59.9178 27.752 59.9738 27.888 59.9738 28.064V28.4C59.9738 28.592 59.9178 28.744 59.8058 28.856C59.6938 28.968 59.5418 29.016 59.3498 29C57.6538 28.92 56.4138 28.504 55.6298 27.752C54.8458 26.984 54.4538 25.896 54.4538 24.488V12.848C54.4538 12.64 54.5018 12.48 54.5978 12.368C54.7098 12.256 54.8698 12.2 55.0778 12.2H55.4138C55.6218 12.2 55.7738 12.256 55.8698 12.368C55.9818 12.48 56.0378 12.64 56.0378 12.848V24.296C56.0378 24.984 56.1418 25.552 56.3498 26C56.5738 26.448 56.9258 26.792 57.4058 27.032C57.9018 27.272 58.5578 27.408 59.3738 27.44ZM59.3738 16.256C59.5658 16.256 59.7098 16.312 59.8058 16.424C59.9178 16.52 59.9738 16.664 59.9738 16.856V17.168C59.9738 17.344 59.9178 17.488 59.8058 17.6C59.7098 17.696 59.5658 17.744 59.3738 17.744H52.0538C51.8618 17.744 51.7098 17.696 51.5978 17.6C51.5018 17.488 51.4538 17.344 51.4538 17.168V16.856C51.4538 16.664 51.5018 16.52 51.5978 16.424C51.7098 16.312 51.8618 16.256 52.0538 16.256H59.3738Z" fill="black"/>
<path d="M40.5672 26.4801C40.4392 26.3041 40.4072 26.1441 40.4712 26.0001C40.5352 25.8561 40.6552 25.7521 40.8312 25.6881L41.1912 25.5681C41.3512 25.5201 41.4872 25.5281 41.5992 25.5921C41.7112 25.6401 41.8392 25.7361 41.9832 25.8801C42.3832 26.5841 42.9752 27.1121 43.7592 27.4641C44.5592 27.8161 45.3752 27.9361 46.2072 27.8241C47.0552 27.7121 47.7592 27.3521 48.3192 26.7441C48.6872 26.3441 48.8872 25.8881 48.9192 25.3761C48.9512 24.8641 48.7912 24.4161 48.4392 24.0321C48.0872 23.6321 47.5752 23.3761 46.9032 23.2641L44.1672 22.8561C43.1912 22.6961 42.4392 22.3041 41.9112 21.6801C41.3832 21.0401 41.1352 20.3121 41.1672 19.4961C41.1992 18.6801 41.4872 17.9761 42.0312 17.3841C42.7352 16.6481 43.5432 16.2161 44.4552 16.0881C45.3832 15.9601 46.2872 16.0721 47.1672 16.4241C48.0472 16.7761 48.7752 17.2641 49.3512 17.8881C49.5112 18.0321 49.5832 18.1761 49.5672 18.3201C49.5512 18.4641 49.4632 18.5921 49.3032 18.7041L49.0152 18.8721C48.8552 18.9681 48.7112 19.0081 48.5832 18.9921C48.4712 18.9761 48.3272 18.9041 48.1512 18.7761C47.7032 18.3281 47.1832 17.9841 46.5912 17.7441C46.0152 17.4881 45.4232 17.4081 44.8152 17.5041C44.2072 17.5841 43.6632 17.8721 43.1832 18.3681C42.8472 18.7201 42.6632 19.1281 42.6312 19.5921C42.5992 20.0561 42.7272 20.4721 43.0152 20.8401C43.3192 21.2081 43.7672 21.4401 44.3592 21.5361L47.1192 21.9441C48.1752 22.1041 48.9832 22.5281 49.5432 23.2161C50.1192 23.8881 50.3912 24.6561 50.3592 25.5201C50.3272 26.3681 50.0312 27.1121 49.4712 27.7521C48.7032 28.5681 47.7112 29.0561 46.4952 29.2161C45.2952 29.3761 44.1352 29.2081 43.0152 28.7121C41.8952 28.2001 41.0792 27.4561 40.5672 26.4801Z" fill="black"/>
<path d="M38.2883 22.0639C38.3363 22.3679 38.2803 22.6079 38.1203 22.7839C37.9603 22.9599 37.7203 23.0479 37.4003 23.0479H36.8723C36.8723 21.8479 36.6483 20.8239 36.2003 19.9759C35.7683 19.1279 35.1843 18.4959 34.4483 18.0799C33.7283 17.6639 32.9203 17.4559 32.0243 17.4559C30.9843 17.4559 30.0803 17.6639 29.3123 18.0799C28.5443 18.4959 27.9523 19.0959 27.5363 19.8799C27.1203 20.6639 26.9123 21.5759 26.9123 22.6159C26.9123 23.6719 27.1203 24.5919 27.5363 25.3759C27.9523 26.1599 28.5523 26.7679 29.3363 27.1999C30.1203 27.6159 31.0483 27.8239 32.1203 27.8239C33.0483 27.8239 33.9043 27.5999 34.6883 27.1519C35.4883 26.6879 36.1123 26.0639 36.5603 25.2799C36.7043 25.1519 36.8403 25.0719 36.9683 25.0399C37.0963 25.0079 37.2323 25.0399 37.3763 25.1359L37.6883 25.3039C37.8643 25.4159 37.9603 25.5519 37.9763 25.7119C38.0083 25.8559 37.9603 25.9999 37.8323 26.1439C37.2403 27.1039 36.4323 27.8719 35.4083 28.4479C34.3843 29.0079 33.2883 29.2879 32.1203 29.2879C30.7923 29.2879 29.6163 28.9999 28.5923 28.4239C27.5683 27.8479 26.7683 27.0559 26.1923 26.0479C25.6323 25.0239 25.3523 23.8799 25.3523 22.6159C25.3523 21.3519 25.6323 20.2159 26.1923 19.2079C26.7683 18.1999 27.5603 17.4159 28.5683 16.8559C29.5923 16.2799 30.7443 15.9919 32.0243 15.9919C33.0643 15.9919 34.0403 16.2319 34.9523 16.7119C35.8643 17.1759 36.6163 17.8639 37.2083 18.7759C37.8163 19.6879 38.1763 20.7839 38.2883 22.0639ZM37.1603 23.0479H26.3843V21.7039H37.1603V23.0479Z" fill="black"/>
<path d="M13.12 18.8479H17.272C18.344 18.8479 19.184 18.5759 19.792 18.0319C20.416 17.4719 20.728 16.7359 20.728 15.8239C20.728 15.2319 20.584 14.7119 20.296 14.2639C20.024 13.7999 19.624 13.4399 19.096 13.1839C18.584 12.9279 17.976 12.7999 17.272 12.7999H13.312V11.1919H17.272C18.216 11.1919 19.08 11.3999 19.864 11.8159C20.648 12.2319 21.264 12.7919 21.712 13.4959C22.16 14.1999 22.384 14.9759 22.384 15.8239C22.384 16.6719 22.16 17.4399 21.712 18.1279C21.28 18.7999 20.672 19.3279 19.888 19.7119C19.104 20.0799 18.232 20.2639 17.272 20.2639H13.12V18.8479ZM13.312 27.4159H17.728C18.464 27.4159 19.136 27.2559 19.744 26.9359C20.352 26.6159 20.832 26.1839 21.184 25.6399C21.536 25.0799 21.712 24.4799 21.712 23.8399C21.712 23.1999 21.536 22.6079 21.184 22.0639C20.832 21.5039 20.352 21.0639 19.744 20.7439C19.136 20.4239 18.464 20.2639 17.728 20.2639H13.432V18.8479H17.728C18.72 18.8479 19.648 19.0719 20.512 19.5199C21.376 19.9679 22.064 20.5759 22.576 21.3439C23.104 22.1119 23.368 22.9439 23.368 23.8399C23.368 24.7359 23.104 25.5839 22.576 26.3839C22.064 27.1839 21.376 27.8239 20.512 28.3039C19.648 28.7839 18.72 29.0239 17.728 29.0239H13.312V27.4159ZM13 29.0239C12.664 29.0239 12.4 28.9359 12.208 28.7599C12.032 28.5679 11.944 28.2959 11.944 27.9439V12.2719C11.944 11.9199 12.032 11.6559 12.208 11.4799C12.4 11.2879 12.664 11.1919 13 11.1919H13.6V29.0239H13Z" fill="black"/>
</svg>
