<svg width="20" height="20" viewBox="0 0 20 20" fill="none" xmlns="http://www.w3.org/2000/svg">
  <g clip-path="url(#clip0_48701_6027)">
    <path
      d="M19.12 10.2159C19.12 9.54225 19.0595 8.89452 18.9473 8.27271H10V11.9475H15.1127C14.8925 13.135 14.2232 14.1411 13.217 14.8148V17.1984H16.2873C18.0836 15.5445 19.12 13.1091 19.12 10.2159Z"
      fill="#4285F4" />
    <path
      d="M10.0003 19.5001C12.5653 19.5001 14.7157 18.6494 16.2876 17.1985L13.2173 14.8148C12.3667 15.3848 11.2785 15.7216 10.0003 15.7216C7.52597 15.7216 5.43165 14.0505 4.68461 11.8051H1.51074V14.2664C3.07392 17.3712 6.28665 19.5001 10.0003 19.5001Z"
      fill="#34A853" />
    <path
      d="M4.68432 11.805C4.49432 11.235 4.38636 10.6261 4.38636 10C4.38636 9.37387 4.49432 8.76501 4.68432 8.19501V5.73364H1.51045C0.867045 7.01614 0.5 8.46705 0.5 10C0.5 11.533 0.867045 12.9839 1.51045 14.2664L4.68432 11.805Z"
      fill="#FBBC05" />
    <path
      d="M10.0003 4.27841C11.3951 4.27841 12.6473 4.75773 13.6319 5.69909L16.3567 2.97432C14.7114 1.44136 12.561 0.5 10.0003 0.5C6.28665 0.5 3.07392 2.62886 1.51074 5.73364L4.68461 8.195C5.43165 5.94954 7.52597 4.27841 10.0003 4.27841Z"
      fill="#EA4335" />
  </g>
  <defs>
    <clipPath id="clip0_48701_6027">
      <rect width="20" height="20" fill="white" />
    </clipPath>
  </defs>
</svg>
