<svg width="20" height="20" viewBox="0 0 1024 1024" fill="none" xmlns="http://www.w3.org/2000/svg">
  <path
    d="M0 0h1024v1024H0V0z m244.622222 193.422222c6.6048 19.820089 11.593956 22.840889 28.091734 34.844445C302.887822 251.044978 330.763378 275.717689 358.4 301.511111l13.641956 12.515556C435.325156 374.328889 496.116622 450.2528 534.755556 529.066667v22.755555c-12.686222 11.576889-12.686222 11.576889-29.513956 23.113956l-16.594489 11.576889L472.177778 597.333333l-14.153956 10.643911C443.733333 614.4 443.733333 614.4 427.554133 611.202844c-107.679289-49.043911-207.9232-121.400889-289.934222-206.648888C126.674489 391.224889 126.674489 391.224889 113.777778 392.533333a18880.682667 18880.682667 0 0 0-1.479111 140.942223c-0.142222 21.816889-0.341333 43.633778-0.6656 65.444977a5641.563022 5641.563022 0 0 0-0.551823 63.186489c-0.056889 8.027022-0.159289 16.054044-0.312888 24.081067a1867.036444 1867.036444 0 0 0-0.221867 33.780622l-0.187733 19.410489c5.125689 25.856 20.997689 38.269156 42.183111 52.736l9.568711 4.886756 10.934044 5.597866 11.491556 5.575111 12.026311 5.927823c114.346667 54.516622 245.731556 61.513956 365.550933 20.718933 151.614578-55.153778 240.497778-162.9184 312.888889-302.290489l8.391111-16.145067c5.461333-10.552889 10.882844-21.122844 16.270222-31.715555 12.982044-25.2416 25.673956-48.014222 44.691912-69.381689-4.881067-12.8-4.881067-12.8-19.626667-17.464889C859.704889 376.638578 799.857778 374.328889 733.866667 392.533333l-1.553067-19.933866c-3.345067-26.447644-12.481422-47.286044-24.758044-70.729956L701.44 289.905778c-18.875733-35.9424-41.216-67.726222-69.973333-96.483556-16.816356-1.672533-16.816356-1.672533-36.807111-1.291378h-11.434667c-12.498489 0-24.991289 0.091022-37.489778 0.182045l-25.969778 0.045511c-22.806756 0.045511-45.607822 0.159289-68.408889 0.284444-23.256178 0.113778-46.518044 0.170667-69.779911 0.227556-45.653333 0.113778-91.306667 0.312889-136.954311 0.551822z"
    fill="#FEFEFE" />
  <path
    d="M113.777778 392.533333c16.611556 7.953067 27.653689 15.251911 40.180622 28.802845 126.765511 129.991111 331.172978 252.683378 514.844444 268.8 49.237333-0.762311 98.9184-17.590044 133.330489-52.980622l11.377778 5.688888c-86.971733 112.878933-195.4816 189.2352-337.755022 213.799823C354.833067 870.570667 224.398222 848.2816 125.155556 773.688889c-13.448533-20.1728-12.765867-28.529778-12.669156-52.4288v-22.084267l0.182044-23.864889 0.045512-24.416711c0.045511-21.407289 0.159289-42.814578 0.284444-64.221866 0.113778-21.845333 0.170667-43.702044 0.227556-65.547378A46936.746667 46936.746667 0 0 1 113.777778 392.533333z"
    fill="#3171FE" />
  <path
    d="M244.622222 193.422222c49.749333-1.058133 99.498667-1.865956 149.253689-2.3552 23.108267-0.238933 46.205156-0.5632 69.307733-1.080889 22.317511-0.494933 44.629333-0.762311 66.946845-0.881777 8.4992-0.085333 16.992711-0.250311 25.486222-0.494934 66.417778-1.848889 66.417778-1.848889 89.759289 14.637511A216.558933 216.558933 0 0 1 671.288889 238.933333l11.798755 17.379556c52.718933 92.16 52.718933 92.16 50.779023 136.220444l11.377777 5.688889-10.643911 3.777422-14.597689 5.467023-14.205155 5.199644c-46.432711 22.124089-81.891556 53.327644-117.356089 90.089245l-12.452978 12.686222A5490.0224 5490.0224 0 0 0 546.133333 546.133333a1010.961067 1010.961067 0 0 1-23.131022-36.443022C493.983289 461.909333 463.701333 417.547378 426.666667 375.466667c-4.152889-4.778667-8.305778-9.545956-12.572445-14.466845-44.987733-50.898489-91.022222-97.934222-146.067911-137.864533C260.039111 217.258667 252.302222 211.057778 244.622222 204.8v-11.377778z"
    fill="#01D6BA" />
  <path
    d="M938.666667 403.911111l5.688889 11.377778-7.4752 9.984c-27.022222 37.182578-47.775289 75.531378-67.549867 116.952178a7167.106844 7167.106844 0 0 1-17.3056 35.84l-7.537778 15.786666c-26.168889 47.314489-68.1984 78.984533-119.864889 94.151111C629.105778 712.533333 529.789156 662.272 443.733333 625.777778v-11.377778c8.664178-5.802667 17.618489-11.167289 26.669511-16.355556 47.866311-29.622044 87.552-68.437333 126.464-108.845511C688.651378 394.183111 811.121778 348.171378 938.666667 403.911111z"
    fill="#0C3A9B" />
</svg>
